<svg xmlns="http://www.w3.org/2000/svg" viewBox="0 0 112.29 112.29"><defs><style>.cls-1{fill:#ebbe9e;}.cls-2{fill:#c4b6d4;}.cls-3{fill:#1d1e1b;}</style></defs><g id="Layer_2" data-name="Layer 2"><g id="Livello_2" data-name="Livello 2"><path class="cls-1" d="M56.14,112.29a56.15,56.15,0,1,1,56.15-56.15A56.21,56.21,0,0,1,56.14,112.29ZM56.14,1a55.15,55.15,0,1,0,55.15,55.14A55.21,55.21,0,0,0,56.14,1Z"/><circle class="cls-1" cx="56.14" cy="56.14" r="41.54"/><path class="cls-2" d="M50,6.18,51.3,6l1,4.73-1.35.15-.12-.82-1.43.17-.37.88-1.45.17Zm-.19,3.05.91-.11-.22-1.5Z"/><path class="cls-2" d="M53.74,5.89l1.37,0L54.2,9.62l1.93,0-.25,1.07-3.31.08Z"/><path class="cls-2" d="M57.9,5.91,59.27,6l-1.48,4.74-1.38-.06Z"/><path class="cls-2" d="M59.18,8.83a3.06,3.06,0,0,1,3.3-2.59A1.72,1.72,0,0,1,64.1,7.58l-1.27.54c-.1-.53-.31-.72-.65-.76-.78-.1-1.46.82-1.56,1.67-.06.53.13.84.59.89a1.16,1.16,0,0,0,1.09-.53l.85.92a2.43,2.43,0,0,1-2.14.74A1.91,1.91,0,0,1,59.18,8.83Z"/><path class="cls-2" d="M65.51,6.84l3.3.72-.51,1-2-.42L66,8.82l1.74.38-.5,1L65.48,9.8l-.4.77L67,11l-.5,1-3.3-.72Z"/><path class="cls-2" d="M74,9.35l1.26.49-1.36,4.63L72.65,14l.28-.78-1.35-.52-.74.6-1.36-.53ZM72.42,12l.85.34.51-1.44Z"/><path class="cls-2" d="M77.51,10.88l1.49.76c1,.49,1.28,1.17,1,1.78s-.85.68-1.61.44h0a1.05,1.05,0,0,1,.4,1.41c-.41.81-1.53.84-2.82.18l-1.74-.88Zm-.88,3.83c.55.28.82.12,1-.15s0-.5-.38-.71l-.39-.2-.72.79Zm.83-1.78.28.15c.38.19.72.25.89-.09s0-.41-.29-.58l-.28-.14Z"/><path class="cls-2" d="M81.88,13.27l1.4.9c.91.58,1.16,1.29.79,1.87s-.91.59-1.65.27v0a1,1,0,0,1,.26,1.43c-.5.78-1.61.69-2.83-.09l-1.64-1.05ZM80.62,17c.52.33.81.21,1,0s.08-.5-.3-.75L80.91,16l-.79.72Zm1-1.68.27.17c.36.23.68.32.89,0s.08-.4-.24-.61l-.26-.17Z"/><path class="cls-2" d="M86,16.07l1.28,1c1,.8,1.12,1.55.66,2.12a1.43,1.43,0,0,1-2.07.08h0c.48.43.5.81.22,1.17a2.69,2.69,0,0,1-.34.33l-.14.1a1.52,1.52,0,0,0-.29.27.83.83,0,0,0-.16.34L84,20.61a.57.57,0,0,1,.14-.3,1.62,1.62,0,0,1,.33-.29l.18-.13a1.81,1.81,0,0,0,.28-.26c.18-.23.15-.4-.13-.63l-.26-.2-1.46,1.09L82,19Zm.25,1.46-.92.69.24.19c.47.37.85.37,1.1.05a.45.45,0,0,0-.12-.7Z"/><path class="cls-2" d="M86.89,21.05a2.76,2.76,0,0,1,.57-.45l2.3-1.37,1,1-2.43,1.45a1.27,1.27,0,0,0-.32.24.53.53,0,0,0,0,.87c.3.29.63.37,1.23,0l2.56-1.53,1,1-2.51,1.49c-1.27.76-2.23.7-3.14-.18S86.15,21.81,86.89,21.05Z"/><path class="cls-2" d="M89.76,24.81l3.83,0-1.06-1.26,1-.47,2.15,2.55-.78.37-3.83,0,1.15,1.37-1,.47L89,25.18Z"/><path class="cls-2" d="M92.34,27.88l3.81.36-1-1.34,1-.38,1.92,2.72-.81.3-3.81-.37,1,1.46-1,.38-2-2.83Z"/><path class="cls-2" d="M98.67,30.22l.72,1.17-4.77,1.39L93.9,31.6Z"/><path class="cls-2" d="M100,32.49l.53,1.06-1.92,2.14,2.71-.55.55,1.1-4.87,1-.53-1.06L98.38,34l-2.72.55-.55-1.1Z"/><path class="cls-2" d="M99.32,37.56A2.92,2.92,0,0,1,103,39.19a2,2,0,0,1-1.2,2.68,2.93,2.93,0,0,1-3.68-1.63A2,2,0,0,1,99.32,37.56Zm2,2.92c.5-.18.71-.53.56-1-.27-.72-1.33-.87-2.14-.57-.49.18-.71.54-.56,1C99.48,40.63,100.54,40.78,101.35,40.48Z"/><path class="cls-2" d="M105.49,50.07l.16,1.33-4.71,1-.16-1.34.82-.12-.18-1.44-.88-.36-.19-1.45Zm-3-.16.11.91,1.51-.24Z"/><path class="cls-2" d="M105.82,53.87l0,1.38-3.77-.88.07,1.93-1.08-.25-.11-3.3Z"/><path class="cls-2" d="M105.83,58l0,1.38L101,57.94l0-1.37Z"/><path class="cls-2" d="M102.92,59.3a3.06,3.06,0,0,1,2.61,3.28,1.73,1.73,0,0,1-1.32,1.64l-.55-1.28c.52-.1.72-.31.75-.64.09-.78-.83-1.46-1.69-1.55-.52-.06-.83.14-.88.59a1.17,1.17,0,0,0,.55,1.09l-.93.86a2.48,2.48,0,0,1-.75-2.14A1.93,1.93,0,0,1,102.92,59.3Z"/><path class="cls-2" d="M105,65.62l-.68,3.3-1-.49.41-2-.72-.36-.36,1.74-1-.49.36-1.75-.77-.39-.41,2-1-.5.69-3.3Z"/><path class="cls-2" d="M102.52,74.16,102,75.41,97.4,74.09l.48-1.26.79.27.51-1.35L98.57,71l.52-1.37ZM99.9,72.58l-.33.86,1.44.49Z"/><path class="cls-2" d="M101,77.67l-.74,1.49c-.49,1-1.16,1.29-1.78,1s-.68-.85-.45-1.61h0a1.05,1.05,0,0,1-1.4.41c-.82-.41-.86-1.52-.21-2.82l.87-1.75Zm-3.83-.86c-.28.56-.12.83.15,1s.51,0,.71-.38l.2-.4-.8-.7Zm1.78.82-.14.28c-.2.39-.25.72.09.89s.41,0,.58-.3l.14-.28Z"/><path class="cls-2" d="M98.67,82.05l-.89,1.41c-.58.92-1.28,1.17-1.86.8s-.6-.9-.29-1.64h0a1.05,1.05,0,0,1-1.43.27c-.78-.49-.71-1.6.06-2.83l1-1.65Zm-3.74-1.23c-.32.53-.2.81.06,1s.51.07.75-.32l.23-.37-.72-.79Zm1.7,1-.17.27c-.23.36-.32.69,0,.89s.41.08.61-.24l.17-.27Z"/><path class="cls-2" d="M95.9,86.16l-1,1.29c-.8,1-1.54,1.13-2.12.68a1.43,1.43,0,0,1-.1-2.07v0c-.44.48-.82.5-1.18.22a1.79,1.79,0,0,1-.33-.34l-.1-.13a1.29,1.29,0,0,0-.28-.29.78.78,0,0,0-.33-.16l.87-1.13a.67.67,0,0,1,.31.15,1.89,1.89,0,0,1,.3.32l.13.18a1.79,1.79,0,0,0,.26.28c.23.18.4.14.62-.14l.21-.26-1.1-1.46.84-1.08Zm-1.46.27-.7-.93-.19.25c-.37.47-.36.85,0,1.1a.45.45,0,0,0,.7-.12Z"/><path class="cls-2" d="M90.92,87.13a3.26,3.26,0,0,1,.46.56L92.76,90l-1,1-1.46-2.42a1.24,1.24,0,0,0-.25-.32.54.54,0,0,0-.87,0c-.28.3-.36.63,0,1.23l1.55,2.55-1,1-1.52-2.5a2.3,2.3,0,0,1,.17-3.14C89.26,86.58,90.16,86.39,90.92,87.13Z"/><path class="cls-2" d="M87.18,90v3.82l1.25-1.07.47,1-2.53,2.17L86,95.16V91.33L84.65,92.5l-.48-1,2.64-2.26Z"/><path class="cls-2" d="M84.12,92.65l-.34,3.81,1.34-.95.38,1-2.71,1.93-.3-.81.34-3.81-1.46,1-.38-1,2.82-2Z"/><path class="cls-2" d="M81.86,99l-1.17.73L79.27,95l1.16-.73Z"/><path class="cls-2" d="M79.61,100.31l-1.06.54-2.16-1.91.58,2.71-1.1.56-1-4.86,1-.54,2.16,1.9L77.47,96l1.1-.56Z"/><path class="cls-2" d="M74.5,99.7a2.93,2.93,0,0,1-1.61,3.7,2,2,0,0,1-2.69-1.19,2.92,2.92,0,0,1,1.61-3.69A2,2,0,0,1,74.5,99.7Zm-2.91,2c.18.5.54.71,1,.56.72-.28.87-1.33.56-2.14-.19-.5-.54-.72-1-.56C71.43,99.88,71.28,100.94,71.59,101.75Z"/><path class="cls-2" d="M62.05,106l-1.34.18-1.05-4.71,1.34-.18.14.82,1.43-.19.35-.89,1.46-.19Zm.13-3-.91.12.25,1.5Z"/><path class="cls-2" d="M58.28,106.31l-1.37.06.84-3.77-1.92.08.24-1.07,3.29-.14Z"/><path class="cls-2" d="M54.1,106.37l-1.37,0,1.41-4.76,1.38,0Z"/><path class="cls-2" d="M52.78,103.47a3.08,3.08,0,0,1-3.27,2.64,1.74,1.74,0,0,1-1.65-1.31l1.27-.56c.11.52.32.72.66.75.78.08,1.45-.85,1.53-1.7.06-.53-.14-.84-.59-.88a1.16,1.16,0,0,0-1.09.55l-.87-.92a2.46,2.46,0,0,1,2.14-.77A1.93,1.93,0,0,1,52.78,103.47Z"/><path class="cls-2" d="M46.5,105.57l-3.31-.66.49-1,2,.4.36-.73-1.75-.35.49-1,1.75.35.38-.78-2-.39.49-1,3.31.66Z"/><path class="cls-2" d="M38,103.19l-1.26-.46L38,98.08l1.27.47-.27.78,1.36.51.72-.62,1.37.51Zm1.55-2.63-.86-.32-.48,1.45Z"/><path class="cls-2" d="M34.42,101.72,32.93,101c-1-.48-1.31-1.15-1-1.77s.84-.69,1.6-.46v0a1,1,0,0,1-.43-1.39c.4-.83,1.52-.88,2.82-.24l1.76.86Zm0-2-.29-.14c-.39-.19-.72-.24-.88.1s0,.41.3.57l.28.14Zm.8-1.79c-.56-.27-.83-.11-1,.16s0,.51.39.71l.4.19.7-.8Z"/><path class="cls-2" d="M30,99.4l-1.42-.88c-.92-.57-1.18-1.27-.81-1.86s.9-.6,1.64-.3h0a1.06,1.06,0,0,1-.28-1.44c.48-.78,1.6-.71,2.83,0l1.66,1Zm.23-2L30,97.19c-.37-.23-.69-.31-.89,0s-.08.41.24.6l.26.17Zm1-1.7c-.52-.33-.81-.2-1,.06s-.07.51.32.75l.37.23.78-.73Z"/><path class="cls-2" d="M25.9,96.67l-1.3-1c-1-.78-1.14-1.53-.7-2.11A1.43,1.43,0,0,1,26,93.46h0c-.48-.43-.51-.81-.23-1.17a1.72,1.72,0,0,1,.33-.33l.13-.1a1.59,1.59,0,0,0,.29-.29.78.78,0,0,0,.16-.33l1.13.86a.64.64,0,0,1-.14.31,1.89,1.89,0,0,1-.32.3l-.18.13a1.38,1.38,0,0,0-.27.27c-.18.23-.14.4.14.62l.26.2,1.45-1.11,1.09.83Zm-.28-1.45.91-.71-.24-.19c-.48-.36-.86-.35-1.1,0s-.15.49.13.7Z"/><path class="cls-2" d="M24.89,91.71a3.26,3.26,0,0,1-.56.46l-2.27,1.41-1-.94,2.41-1.49a1.71,1.71,0,0,0,.32-.26.53.53,0,0,0-.05-.86c-.3-.28-.64-.35-1.23,0L20,91.62l-1-.94,2.49-1.54a2.27,2.27,0,0,1,3.13.13C25.41,90,25.62,90.93,24.89,91.71Z"/><path class="cls-2" d="M22,88l-3.83,0,1.08,1.24-1,.49L16,87.24l.77-.38,3.83,0-1.18-1.35,1-.48,2.28,2.61Z"/><path class="cls-2" d="M19.31,85l-3.82-.3,1,1.32-1,.4-2-2.69.81-.31,3.82.3L17,82.23l1-.4,2.05,2.81Z"/><path class="cls-2" d="M12.94,82.73l-.73-1.17L17,80.1l.74,1.17Z"/><path class="cls-2" d="M11.6,80.48l-.55-1,1.89-2.18-2.71.6-.57-1.09,4.85-1.08.55,1-1.88,2.18,2.7-.6.57,1.09Z"/><path class="cls-2" d="M12.18,75.4a2.91,2.91,0,0,1-3.7-1.58,2,2,0,0,1,1.16-2.7,2.94,2.94,0,0,1,3.7,1.58A2,2,0,0,1,12.18,75.4Zm-2.07-2.89c-.5.19-.71.54-.55,1,.28.72,1.34.86,2.15.55.49-.19.71-.55.54-1C12,72.33,10.92,72.19,10.11,72.51Z"/><path class="cls-2" d="M5.8,63l-.19-1.33,4.7-1.09.19,1.34L9.68,62l.21,1.44.88.34L11,65.26Zm3.05.11-.13-.9-1.49.26Z"/><path class="cls-2" d="M5.42,59.2l-.07-1.37,3.79.81L9,56.72l1.07.23.17,3.29Z"/><path class="cls-2" d="M5.34,55l0-1.37L10.14,55l0,1.37Z"/><path class="cls-2" d="M8.22,53.7a3.05,3.05,0,0,1-2.66-3.24,1.73,1.73,0,0,1,1.3-1.66l.56,1.27c-.52.11-.71.33-.74.66-.07.78.86,1.44,1.72,1.52.53,0,.83-.15.87-.61a1.17,1.17,0,0,0-.56-1.08l.91-.87a2.43,2.43,0,0,1,.78,2.13A1.91,1.91,0,0,1,8.22,53.7Z"/><path class="cls-2" d="M6.08,47.41l.64-3.31,1,.48-.38,2,.72.35.34-1.75,1,.48L9,47.37l.78.38.38-2,1,.48-.64,3.31Z"/><path class="cls-2" d="M8.38,38.87l.46-1.26,4.66,1.24L13,40.12l-.79-.26-.49,1.36.62.72-.5,1.38ZM11,40.4l.32-.86-1.45-.47Z"/><path class="cls-2" d="M9.83,35.33l.72-1.5c.47-1,1.14-1.32,1.76-1s.7.84.48,1.6h0A1,1,0,0,1,14.19,34c.83.4.88,1.51.26,2.82l-.85,1.76Zm2.05,0,.14-.28c.19-.39.23-.72-.11-.89s-.41,0-.57.31l-.14.28Zm1.79.79c.27-.56.11-.83-.16-1s-.51,0-.71.4l-.19.4.81.69Z"/><path class="cls-2" d="M12.11,30.91,13,29.48c.57-.93,1.26-1.19,1.85-.83s.62.9.32,1.64h0A1,1,0,0,1,16.58,30c.79.47.73,1.59,0,2.82l-1,1.68Zm2,.21.17-.28c.22-.37.3-.69,0-.89s-.41-.07-.61.25l-.16.27Zm1.71.95c.32-.52.19-.81-.07-1s-.51-.07-.75.33l-.23.38.74.77Z"/><path class="cls-2" d="M14.81,26.74l1-1.31c.78-1,1.53-1.15,2.11-.71A1.43,1.43,0,0,1,18,26.79h0c.42-.48.8-.51,1.17-.23a1.71,1.71,0,0,1,.33.33l.1.13a2,2,0,0,0,.29.29.82.82,0,0,0,.34.15l-.86,1.14a.57.57,0,0,1-.3-.14,1.19,1.19,0,0,1-.31-.32L18.67,28a1.71,1.71,0,0,0-.27-.27c-.23-.18-.41-.15-.62.14l-.2.27,1.12,1.43-.82,1.1Zm1.46-.29.71.91.19-.24c.36-.49.34-.86,0-1.11a.45.45,0,0,0-.7.14Z"/><path class="cls-2" d="M19.76,25.71a3.39,3.39,0,0,1-.47-.56l-1.42-2.26.93-1,1.51,2.4a1.68,1.68,0,0,0,.25.31.54.54,0,0,0,.87-.05c.28-.31.35-.64,0-1.23l-1.6-2.52.94-1,1.56,2.47a2.3,2.3,0,0,1-.11,3.14C21.43,26.22,20.54,26.43,19.76,25.71Z"/><path class="cls-2" d="M23.45,22.75l-.06-3.83L22.16,20l-.49-1,2.49-2.2.38.77.06,3.82,1.34-1.18.49,1-2.6,2.3Z"/><path class="cls-2" d="M26.47,20.08l.28-3.82-1.33,1-.4-1,2.68-2L28,15l-.28,3.81,1.44-1.06.4,1-2.79,2.07Z"/><path class="cls-2" d="M28.65,13.69,29.8,13l1.51,4.73-1.16.74Z"/><path class="cls-2" d="M30.87,12.33l1.05-.56,2.19,1.87-.63-2.7,1.09-.58,1.12,4.85-1,.56L32.45,13.9l.62,2.7L32,17.18Z"/><path class="cls-2" d="M36,12.86a2.94,2.94,0,0,1,1.54-3.73,2,2,0,0,1,2.72,1.14A2.94,2.94,0,0,1,38.69,14,2,2,0,0,1,36,12.86Zm2.88-2.1c-.2-.5-.56-.71-1-.54-.71.28-.84,1.34-.52,2.15.19.49.55.71,1,.54C39.05,12.62,39.18,11.56,38.86,10.76Z"/><circle class="cls-1" cx="44.09" cy="8.83" r="2.24"/><circle class="cls-1" cx="8.93" cy="67.88" r="2.24"/><circle class="cls-1" cx="102.06" cy="44.98" r="2.24"/><circle class="cls-1" cx="66.95" cy="102.92" r="2.24"/><path class="cls-2" d="M35.76,51.28a18.91,18.91,0,1,1,37.81,0V77.09H35.76Z"/><path class="cls-3" d="M53.64,77.25a18.06,18.06,0,0,1-18-18V51.14l.12,0c.06,0,6.45-2.07,10.78-10.21a.71.71,0,0,1,.59-.38h0a.71.71,0,0,1,.58.31l.09.14c1.19,1.81,4.81,7.29,22.37,14.78,2.48-1.37,4.54-1.56,6.12-.59,2.25,1.4,2.92,4.8,2.8,7.3a6.56,6.56,0,0,1-6.3,6.63,11.41,11.41,0,0,1-4.27-1C64.75,73.83,59.2,77.25,53.64,77.25ZM35.93,51.38v7.83A17.73,17.73,0,0,0,53.64,76.93c5.48,0,11-3.42,14.68-9.14l.08-.12.12,0a11,11,0,0,0,4.24,1,6.25,6.25,0,0,0,6-6.32c.11-2.4-.51-5.68-2.64-7-1.49-.92-3.46-.71-5.86.64l-.07,0-.08,0C52.4,48.54,48.86,43.17,47.53,41.15L47.44,41a.38.38,0,0,0-.65,0C42.72,48.72,36.82,51.06,35.93,51.38Z"/><path class="cls-3" d="M70.89,66.25h-.37c0-3,.76-5.19,2.2-6.46a4.61,4.61,0,0,1,3.38-1.17l0,.37A4.39,4.39,0,0,0,73,60.07C71.61,61.28,70.91,63.36,70.89,66.25Z"/><path class="cls-3" d="M74.13,63.38a4,4,0,0,0-2.33-2.07l.09-.31a4.24,4.24,0,0,1,2.55,2.26Z"/><path class="cls-3" d="M43.47,64.13a6.79,6.79,0,1,1,6.78-6.79A6.8,6.8,0,0,1,43.47,64.13Zm0-13.24a6.46,6.46,0,1,0,6.46,6.45A6.46,6.46,0,0,0,43.47,50.89Z"/><circle class="cls-3" cx="44.19" cy="58.5" r="5.07"/><path class="cls-3" d="M56.71,64.13a6.79,6.79,0,1,1,6.79-6.79A6.79,6.79,0,0,1,56.71,64.13Zm0-13.24a6.46,6.46,0,1,0,6.46,6.45A6.46,6.46,0,0,0,56.71,50.89Z"/><circle class="cls-3" cx="57.44" cy="58.5" r="5.07"/><path class="cls-3" d="M41,70.26a2.09,2.09,0,1,1,2.09-2.09A2.09,2.09,0,0,1,41,70.26Zm0-3.85a1.76,1.76,0,1,0,1.76,1.76A1.75,1.75,0,0,0,41,66.41Z"/><path class="cls-3" d="M65.26,70.26a2.09,2.09,0,1,1,2.09-2.09A2.1,2.1,0,0,1,65.26,70.26Zm0-3.85A1.76,1.76,0,1,0,67,68.17,1.76,1.76,0,0,0,65.26,66.41Z"/><path class="cls-3" d="M48.71,64.26a3,3,0,0,0,1.63.6,3.06,3.06,0,0,0,1.63-.6,2.07,2.07,0,0,1-.67.68,1.9,1.9,0,0,1-1,.29A1.92,1.92,0,0,1,48.71,64.26Z"/><circle class="cls-2" cx="76.08" cy="35.83" r="6.6"/><circle class="cls-2" cx="28.28" cy="63.72" r="4.82"/></g></g></svg>