<svg xmlns="http://www.w3.org/2000/svg" viewBox="0 0 111.67 111.67"><defs><style>.cls-1{fill:#c4b6d4;}.cls-2{fill:#ea953b;}.cls-3{fill:#ebbe9e;}.cls-4{fill:#1d1e1b;}</style></defs><g id="Layer_2" data-name="Layer 2"><g id="Livello_2" data-name="Livello 2"><path class="cls-1" d="M55.83,111.67a55.84,55.84,0,1,1,55.84-55.84A55.9,55.9,0,0,1,55.83,111.67ZM55.83.38a55.46,55.46,0,1,0,55.46,55.45A55.51,55.51,0,0,0,55.83.38Z"/><circle class="cls-1" cx="55.83" cy="55.83" r="41.54"/><path class="cls-2" d="M49.65,5.87,51,5.71l1,4.72-1.35.16-.12-.82-1.43.17-.37.88L47.24,11Zm-.19,3.05.91-.11-.22-1.5Z"/><path class="cls-2" d="M53.43,5.58l1.37,0L53.89,9.3l1.93,0-.26,1.07-3.3.08Z"/><path class="cls-2" d="M57.59,5.6,59,5.66,57.47,10.4l-1.37-.06Z"/><path class="cls-2" d="M58.87,8.51a3.05,3.05,0,0,1,3.3-2.58,1.72,1.72,0,0,1,1.62,1.34l-1.27.53c-.1-.52-.31-.71-.65-.75-.78-.1-1.46.82-1.56,1.67-.06.53.13.84.59.89A1.16,1.16,0,0,0,62,9.08l.85.92a2.43,2.43,0,0,1-2.14.74A1.92,1.92,0,0,1,58.87,8.51Z"/><path class="cls-2" d="M65.2,6.53l3.3.72-.51,1L66,7.8l-.37.71,1.74.38-.5,1-1.74-.38-.4.77,2,.42-.5,1-3.3-.72Z"/><path class="cls-2" d="M73.7,9,75,9.53,73.6,14.16l-1.26-.5.28-.78-1.35-.52-.74.6-1.36-.53Zm-1.59,2.6L73,12l.51-1.44Z"/><path class="cls-2" d="M77.2,10.57l1.49.76c1,.49,1.28,1.17,1,1.78s-.85.68-1.61.44h0a1.05,1.05,0,0,1,.4,1.41c-.41.81-1.53.84-2.82.18l-1.74-.88Zm-.88,3.83c.55.28.82.12,1-.15s0-.5-.38-.71l-.39-.21-.72.8Zm.83-1.78.28.15c.38.19.72.25.89-.09s0-.41-.29-.58L77.75,12Z"/><path class="cls-2" d="M81.56,13l1.41.9c.91.58,1.16,1.28.79,1.87s-.92.59-1.65.27v0a1,1,0,0,1,.27,1.43c-.5.78-1.61.69-2.83-.09l-1.65-1.05Zm-1.25,3.72c.52.33.81.21,1-.05s.08-.5-.31-.75l-.37-.24-.79.72Zm1-1.68.27.17c.36.23.68.32.89,0s.08-.4-.24-.61L82,14.39Z"/><path class="cls-2" d="M85.65,15.76l1.28,1c1,.8,1.11,1.55.66,2.12a1.43,1.43,0,0,1-2.07.08h0c.47.43.5.81.21,1.17a2.05,2.05,0,0,1-.33.33l-.14.1a1.52,1.52,0,0,0-.29.27.83.83,0,0,0-.16.34l-1.12-.89a.57.57,0,0,1,.14-.3,1.62,1.62,0,0,1,.33-.29l.18-.13a1.81,1.81,0,0,0,.28-.26c.18-.23.15-.4-.13-.63l-.26-.2-1.46,1.09-1.08-.86Zm.25,1.46-.92.69.23.19c.48.37.86.36,1.11,0a.44.44,0,0,0-.12-.7Z"/><path class="cls-2" d="M86.58,20.74a2.76,2.76,0,0,1,.57-.45l2.3-1.37,1,1L88,21.33a1.27,1.27,0,0,0-.32.24.53.53,0,0,0,0,.87c.3.29.63.37,1.23,0l2.56-1.53,1,1L90,23.37a2.28,2.28,0,0,1-3.13-.18C86,22.39,85.84,21.5,86.58,20.74Z"/><path class="cls-2" d="M89.45,24.5l3.83,0-1.06-1.26,1-.47,2.15,2.55-.78.37-3.83,0,1.15,1.37-1,.47-2.24-2.66Z"/><path class="cls-2" d="M92,27.57l3.81.36-1-1.34,1-.38,1.92,2.72-.81.3-3.81-.37,1,1.46-1,.38-2-2.83Z"/><path class="cls-2" d="M98.36,29.91l.72,1.17-4.77,1.39-.72-1.18Z"/><path class="cls-2" d="M99.67,32.18l.53,1.06-1.92,2.14,2.71-.55.55,1.1-4.87,1-.53-1.06,1.93-2.14-2.72.55-.55-1.1Z"/><path class="cls-2" d="M99,37.25a2.92,2.92,0,0,1,3.68,1.63,2,2,0,0,1-1.2,2.68,2.93,2.93,0,0,1-3.68-1.63A2,2,0,0,1,99,37.25Zm2,2.92c.5-.18.71-.53.56-1-.27-.72-1.33-.87-2.14-.57-.49.18-.71.53-.56,1C99.17,40.32,100.23,40.47,101,40.17Z"/><path class="cls-2" d="M105.18,49.76l.16,1.33-4.71,1-.17-1.34.83-.12-.18-1.44-.89-.36L100,47.39Zm-3.05-.16.11.91,1.51-.24Z"/><path class="cls-2" d="M105.51,53.56l0,1.37-3.77-.87.07,1.93-1.08-.25-.11-3.3Z"/><path class="cls-2" d="M105.52,57.7l0,1.38-4.75-1.45,0-1.37Z"/><path class="cls-2" d="M102.61,59a3.07,3.07,0,0,1,2.61,3.28,1.73,1.73,0,0,1-1.32,1.64l-.55-1.28c.52-.1.71-.31.75-.64.09-.78-.83-1.46-1.69-1.55-.52-.06-.83.14-.88.59a1.17,1.17,0,0,0,.55,1.09l-.93.86a2.48,2.48,0,0,1-.75-2.14A1.93,1.93,0,0,1,102.61,59Z"/><path class="cls-2" d="M104.65,65.31l-.68,3.3-1-.49.41-2-.72-.36-.36,1.74-1-.49.36-1.75-.77-.39-.41,2-1-.5.69-3.3Z"/><path class="cls-2" d="M102.21,73.85l-.48,1.25-4.64-1.32.48-1.26.78.27.52-1.35-.61-.73.52-1.37Zm-2.62-1.58-.33.86,1.44.49Z"/><path class="cls-2" d="M100.7,77.36,100,78.85c-.49,1-1.16,1.29-1.78,1s-.68-.85-.45-1.61h0a1.05,1.05,0,0,1-1.4.41c-.82-.41-.86-1.52-.21-2.82L97,74.06Zm-3.83-.86c-.28.55-.12.83.15,1s.51,0,.71-.38l.2-.4-.8-.71Zm1.78.82-.15.28c-.19.39-.24.72.1.89s.41,0,.58-.3l.14-.28Z"/><path class="cls-2" d="M98.35,81.74l-.88,1.41c-.58.92-1.28,1.17-1.86.8s-.6-.9-.29-1.64h0a1,1,0,0,1-1.43.28c-.78-.49-.71-1.6.06-2.83l1-1.66Zm-3.73-1.23c-.33.53-.2.81.06,1s.5.07.75-.32l.23-.37L94.94,80Zm1.7,1-.17.27c-.23.36-.32.69,0,.89s.41.08.61-.24l.16-.27Z"/><path class="cls-2" d="M95.59,85.85l-1,1.29c-.8,1-1.54,1.13-2.12.68a1.43,1.43,0,0,1-.1-2.07v0c-.44.48-.82.5-1.18.22a1.79,1.79,0,0,1-.33-.34l-.1-.13a1.29,1.29,0,0,0-.28-.29.78.78,0,0,0-.33-.16L91,83.9a.67.67,0,0,1,.31.15,1.54,1.54,0,0,1,.29.32l.14.18a1.79,1.79,0,0,0,.26.28c.23.17.4.14.62-.14l.2-.26L91.75,83l.84-1.08Zm-1.46.27-.7-.93-.19.24c-.37.48-.36.86,0,1.11a.46.46,0,0,0,.7-.12Z"/><path class="cls-2" d="M90.61,86.82a3.26,3.26,0,0,1,.46.56l1.38,2.29-1,1L90,88.24a1.52,1.52,0,0,0-.25-.32.54.54,0,0,0-.87,0c-.28.3-.36.63,0,1.23l1.55,2.55-1,1L88,90.23a2.3,2.3,0,0,1,.17-3.14C89,86.27,89.85,86.08,90.61,86.82Z"/><path class="cls-2" d="M86.87,89.72v3.82l1.25-1.07.47,1-2.53,2.17-.37-.78V91l-1.36,1.17-.48-1,2.64-2.26Z"/><path class="cls-2" d="M83.81,92.34l-.34,3.81,1.33-1,.39,1-2.71,1.94-.3-.81.34-3.81-1.46,1-.38-1,2.82-2Z"/><path class="cls-2" d="M81.55,98.67l-1.17.73L79,94.64l1.16-.73Z"/><path class="cls-2" d="M79.3,100l-1.06.54-2.16-1.91.58,2.71-1.1.56-1-4.86,1-.54,2.16,1.9-.58-2.71,1.1-.56Z"/><path class="cls-2" d="M74.19,99.39a2.93,2.93,0,0,1-1.61,3.7,2,2,0,0,1-2.69-1.19,2.92,2.92,0,0,1,1.61-3.69A2,2,0,0,1,74.19,99.39Zm-2.91,2c.18.5.54.71,1,.56.72-.28.87-1.33.56-2.15-.19-.49-.54-.71-1-.55C71.12,99.57,71,100.63,71.28,101.44Z"/><path class="cls-2" d="M61.74,105.66l-1.34.18-1-4.71,1.34-.18.14.82,1.43-.19.35-.89,1.45-.19Zm.13-3-.91.12.25,1.5Z"/><path class="cls-2" d="M58,106l-1.37.06.84-3.77-1.92.08.24-1.07,3.29-.14Z"/><path class="cls-2" d="M53.79,106.06l-1.37,0,1.41-4.77,1.38,0Z"/><path class="cls-2" d="M52.46,103.16a3.06,3.06,0,0,1-3.26,2.64,1.74,1.74,0,0,1-1.65-1.31l1.27-.56c.11.52.32.71.66.75.78.08,1.45-.85,1.53-1.7.06-.53-.14-.84-.59-.89a1.17,1.17,0,0,0-1.09.56l-.87-.92A2.46,2.46,0,0,1,50.6,101,1.91,1.91,0,0,1,52.46,103.16Z"/><path class="cls-2" d="M46.19,105.26l-3.31-.66.49-1,2,.4.36-.73-1.75-.35.49-1,1.75.35.38-.78-2-.4.49-1,3.31.66Z"/><path class="cls-2" d="M37.65,102.88l-1.26-.46,1.28-4.65,1.27.47-.27.78,1.36.51.72-.62,1.37.51Zm1.55-2.63-.86-.32-.48,1.45Z"/><path class="cls-2" d="M34.11,101.41l-1.49-.73c-1-.48-1.31-1.15-1-1.77s.84-.69,1.6-.46v0A1,1,0,0,1,32.8,97c.4-.83,1.52-.88,2.82-.24l1.76.86Zm0-2-.29-.15c-.39-.18-.72-.23-.88.11s0,.41.3.57l.28.14Zm.8-1.79c-.56-.27-.83-.11-1,.16s0,.51.39.71l.39.19.71-.8Z"/><path class="cls-2" d="M29.71,99.08l-1.42-.87c-.92-.57-1.18-1.27-.82-1.86s.91-.6,1.65-.3h0a1.06,1.06,0,0,1-.28-1.44c.48-.78,1.6-.71,2.83.05l1.66,1Zm.23-2-.27-.17c-.37-.23-.7-.31-.89,0s-.08.4.24.6l.26.17Zm1-1.7c-.52-.33-.81-.2-1,.06s-.07.51.32.75l.37.23.78-.73Z"/><path class="cls-2" d="M25.58,96.36l-1.29-1c-1-.79-1.14-1.53-.7-2.11s1.27-.65,2.07-.11h0c-.48-.43-.51-.81-.23-1.17a1.47,1.47,0,0,1,.33-.33l.13-.1a1.59,1.59,0,0,0,.29-.29.78.78,0,0,0,.16-.33l1.13.86a.57.57,0,0,1-.14.3,1.58,1.58,0,0,1-.32.31l-.18.13a1.38,1.38,0,0,0-.27.27c-.18.23-.15.4.14.62l.26.2,1.45-1.11,1.09.83Zm-.27-1.45.91-.71L26,94c-.48-.36-.86-.35-1.1,0s-.15.49.13.7Z"/><path class="cls-2" d="M24.58,91.4a3.26,3.26,0,0,1-.56.46l-2.27,1.41-1-.94,2.41-1.5a1.41,1.41,0,0,0,.32-.25.53.53,0,0,0,0-.86c-.3-.28-.64-.35-1.23,0l-2.53,1.58-1-.94,2.49-1.54a2.27,2.27,0,0,1,3.13.13C25.1,89.73,25.3,90.62,24.58,91.4Z"/><path class="cls-2" d="M21.64,87.68l-3.82,0L18.9,89l-1,.48-2.19-2.5.78-.38,3.83,0-1.18-1.35,1-.48,2.28,2.61Z"/><path class="cls-2" d="M19,84.64l-3.82-.3,1,1.32-1,.4-2-2.69.81-.31,3.82.3-1.06-1.44,1-.4,2,2.81Z"/><path class="cls-2" d="M12.63,82.42l-.73-1.17,4.75-1.46L17.38,81Z"/><path class="cls-2" d="M11.29,80.17l-.55-1,1.89-2.18-2.71.6-.57-1.09,4.85-1.08.55,1L12.87,78.6l2.7-.6.57,1.09Z"/><path class="cls-2" d="M11.87,75.09a2.91,2.91,0,0,1-3.7-1.58,2,2,0,0,1,1.16-2.7A2.93,2.93,0,0,1,13,72.39,2,2,0,0,1,11.87,75.09ZM9.8,72.2c-.5.19-.71.54-.55,1,.28.72,1.34.86,2.15.55.49-.2.7-.55.54-1C11.66,72,10.61,71.88,9.8,72.2Z"/><path class="cls-2" d="M5.49,62.66,5.3,61.33,10,60.24l.19,1.34-.82.14.21,1.44.88.34L10.67,65Zm3,.11-.13-.9-1.49.26Z"/><path class="cls-2" d="M5.11,58.89,5,57.52l3.79.81-.1-1.92,1.07.23L10,59.93Z"/><path class="cls-2" d="M5,54.73l0-1.37,4.78,1.37,0,1.37Z"/><path class="cls-2" d="M7.91,53.39a3.06,3.06,0,0,1-2.66-3.24,1.74,1.74,0,0,1,1.29-1.66l.57,1.27c-.52.11-.71.33-.74.66-.07.78.86,1.44,1.72,1.52.53.05.83-.15.87-.61a1.17,1.17,0,0,0-.56-1.08l.91-.87a2.42,2.42,0,0,1,.78,2.12A1.92,1.92,0,0,1,7.91,53.39Z"/><path class="cls-2" d="M5.77,47.1l.64-3.31,1,.48-.38,2,.72.35.34-1.75,1,.48-.34,1.75.78.38.38-2,1,.48-.64,3.31Z"/><path class="cls-2" d="M8.07,38.56l.46-1.26,4.66,1.24-.46,1.27-.79-.26-.49,1.36.62.72L11.57,43Zm2.64,1.53.32-.86-1.45-.47Z"/><path class="cls-2" d="M9.52,35l.72-1.51c.47-1,1.14-1.31,1.76-1s.7.84.47,1.6h0a1,1,0,0,1,1.39-.44c.83.4.88,1.51.26,2.82l-.85,1.76Zm2.05,0,.14-.28c.19-.39.23-.72-.11-.89s-.41,0-.57.31l-.14.28Zm1.79.79c.27-.56.11-.83-.16-1s-.51,0-.71.4l-.19.4.81.69Z"/><path class="cls-2" d="M11.8,30.6l.86-1.43c.56-.93,1.26-1.19,1.85-.83s.62.9.32,1.63h0a1.06,1.06,0,0,1,1.43-.3c.79.48.73,1.6,0,2.83l-1,1.68Zm2,.21.17-.28c.22-.37.3-.69,0-.89s-.41-.07-.61.25l-.16.27Zm1.71,1c.32-.52.19-.81-.08-1s-.5-.07-.74.33l-.23.38.74.77Z"/><path class="cls-2" d="M14.5,26.43l1-1.31c.78-1,1.52-1.15,2.11-.71a1.43,1.43,0,0,1,.13,2.07h0c.42-.48.8-.51,1.17-.23a1.71,1.71,0,0,1,.33.33l.1.13a2,2,0,0,0,.29.29.82.82,0,0,0,.34.15L19.1,28.3a.64.64,0,0,1-.31-.14,1.34,1.34,0,0,1-.3-.32l-.13-.17a1.37,1.37,0,0,0-.27-.27c-.23-.18-.41-.15-.62.14l-.2.27,1.12,1.43-.82,1.1ZM16,26.14l.71.91.19-.24c.36-.49.34-.86,0-1.11a.45.45,0,0,0-.7.13Z"/><path class="cls-2" d="M19.45,25.4a3.39,3.39,0,0,1-.47-.56l-1.42-2.26.93-1L20,24a1.68,1.68,0,0,0,.25.31.54.54,0,0,0,.87-.05c.28-.31.35-.64,0-1.23L19.5,20.48l.94-1L22,21.94a2.3,2.3,0,0,1-.11,3.14C21.12,25.91,20.23,26.12,19.45,25.4Z"/><path class="cls-2" d="M23.14,22.44l-.06-3.83L21.85,19.7l-.49-1,2.49-2.2.38.77.06,3.82,1.34-1.18.49,1-2.6,2.3Z"/><path class="cls-2" d="M26.16,19.76,26.44,16l-1.33,1-.4-1,2.68-2,.32.8-.28,3.82,1.44-1.06.4,1-2.8,2.07Z"/><path class="cls-2" d="M28.33,13.38l1.16-.74L31,17.37l-1.16.74Z"/><path class="cls-2" d="M30.56,12l1-.56,2.2,1.87-.63-2.7,1.09-.58,1.12,4.85-1.05.56-2.19-1.87.62,2.7-1.08.58Z"/><path class="cls-2" d="M35.67,12.54a2.93,2.93,0,0,1,1.54-3.72A2,2,0,0,1,39.93,10a2.93,2.93,0,0,1-1.55,3.72A2,2,0,0,1,35.67,12.54Zm2.88-2.09c-.2-.5-.56-.71-1-.54-.71.28-.84,1.34-.52,2.15.19.49.55.7,1,.54C38.74,12.31,38.87,11.25,38.55,10.45Z"/><circle class="cls-3" cx="43.78" cy="8.52" r="2.24"/><circle class="cls-3" cx="8.62" cy="67.57" r="2.24"/><circle class="cls-3" cx="101.75" cy="44.67" r="2.24"/><circle class="cls-3" cx="66.64" cy="102.61" r="2.24"/><path class="cls-3" d="M35.45,51a18.9,18.9,0,0,1,37.8,0V76.78H35.45Z"/><path class="cls-4" d="M53.33,76.94a18.06,18.06,0,0,1-18-18V50.83l.12,0c.06,0,6.45-2.07,10.78-10.21a.71.71,0,0,1,.59-.38.72.72,0,0,1,.62.31l.09.14C48.68,42.47,52.3,48,69.86,55.44c2.48-1.37,4.54-1.56,6.12-.59,2.25,1.4,2.91,4.8,2.8,7.3a6.57,6.57,0,0,1-6.3,6.63,11.41,11.41,0,0,1-4.27-1C64.44,73.52,58.89,76.94,53.33,76.94ZM35.62,51.07V58.9A17.73,17.73,0,0,0,53.33,76.62c5.48,0,11-3.42,14.68-9.14l.08-.12.12,0a11.36,11.36,0,0,0,4.24,1,6.25,6.25,0,0,0,6-6.32c.11-2.4-.51-5.68-2.64-7-1.49-.92-3.46-.71-5.86.64l-.07,0-.08,0C52.09,48.23,48.55,42.86,47.22,40.84l-.09-.13a.38.38,0,0,0-.33-.17.36.36,0,0,0-.32.2C42.41,48.41,36.51,50.75,35.62,51.07Z"/><path class="cls-4" d="M70.58,65.94h-.37c0-3,.75-5.18,2.2-6.45a4.7,4.7,0,0,1,3.38-1.18l0,.38a4.39,4.39,0,0,0-3.1,1.08C71.3,61,70.6,63,70.58,65.94Z"/><path class="cls-4" d="M73.82,63.07A4,4,0,0,0,71.49,61l.09-.31A4.24,4.24,0,0,1,74.13,63Z"/><path class="cls-4" d="M43.16,63.82A6.79,6.79,0,1,1,49.94,57,6.8,6.8,0,0,1,43.16,63.82Zm0-13.24A6.46,6.46,0,1,0,49.62,57,6.46,6.46,0,0,0,43.16,50.58Z"/><circle class="cls-4" cx="43.88" cy="58.19" r="5.07"/><path class="cls-4" d="M56.4,63.82A6.79,6.79,0,1,1,63.19,57,6.79,6.79,0,0,1,56.4,63.82Zm0-13.24A6.46,6.46,0,1,0,62.86,57,6.46,6.46,0,0,0,56.4,50.58Z"/><circle class="cls-4" cx="57.13" cy="58.19" r="5.07"/><path class="cls-4" d="M40.73,70a2.09,2.09,0,1,1,2.09-2.09A2.09,2.09,0,0,1,40.73,70Zm0-3.85a1.76,1.76,0,1,0,1.76,1.76A1.76,1.76,0,0,0,40.73,66.1Z"/><path class="cls-4" d="M65,70A2.09,2.09,0,1,1,67,67.86,2.1,2.1,0,0,1,65,70Zm0-3.85a1.76,1.76,0,1,0,1.76,1.76A1.76,1.76,0,0,0,65,66.1Z"/><path class="cls-4" d="M48.4,64a3,3,0,0,0,1.63.6,3.06,3.06,0,0,0,1.63-.6,2.07,2.07,0,0,1-.67.68,1.9,1.9,0,0,1-1,.29A1.92,1.92,0,0,1,48.4,64Z"/><circle class="cls-3" cx="75.77" cy="35.52" r="6.6"/><circle class="cls-3" cx="27.97" cy="63.41" r="4.82"/></g></g></svg>