<svg xmlns="http://www.w3.org/2000/svg" viewBox="0 0 120.74 21.99"><defs><style>.cls-1{fill:#c4b6d4;}.cls-2,.cls-3{fill:none;}.cls-2,.cls-3,.cls-4{stroke:#fff;stroke-miterlimit:10;}.cls-2{stroke-width:0.38px;}.cls-3,.cls-4{stroke-width:0.77px;}.cls-4,.cls-5{fill:#fff;}.cls-5{font-size:6.12px;font-family:Bilo-ExtraBoldItalic, Bilo;font-weight:800;font-style:italic;letter-spacing:0.02em;}.cls-6{letter-spacing:0.02em;}.cls-7{letter-spacing:0em;}.cls-8{letter-spacing:0.01em;}.cls-9{letter-spacing:0.04em;}.cls-10{letter-spacing:-0.03em;}.cls-11{letter-spacing:0.02em;}.cls-12{letter-spacing:0em;}</style></defs><g id="Layer_2" data-name="Layer 2"><g id="Livello_2" data-name="Livello 2"><rect class="cls-1" y="0.15" width="120.74" height="21.69" rx="10.84" transform="translate(-0.03 0.18) rotate(-0.17)"/><rect class="cls-2" x="1.03" y="1" width="118.79" height="19.99" rx="10" transform="translate(-0.03 0.18) rotate(-0.17)"/><polygon class="cls-3" points="16.5 11.38 9.75 14.18 16.5 16.99 109.46 16.99 109.46 14.18 109.46 11.38 16.5 11.38"/><line class="cls-4" x1="13.17" y1="12.76" x2="13.17" y2="15.61"/><path class="cls-3" d="M16.5,11.38a1.79,1.79,0,0,1,0,2.8s1.8,1,0,2.81"/><line class="cls-4" x1="16.5" y1="14.18" x2="104.79" y2="14.18"/><line class="cls-4" x1="104.79" y1="11.76" x2="104.79" y2="17.38"/><line class="cls-4" x1="106.32" y1="11.76" x2="106.32" y2="17.38"/><text class="cls-5" transform="translate(9.75 8.71)">VIS<tspan class="cls-6" x="9.78" y="0">U</tspan><tspan x="14.24" y="0">AL</tspan><tspan class="cls-7" x="21.7" y="0"> </tspan><tspan class="cls-8" x="23.07" y="0">C</tspan><tspan x="27.14" y="0">OMMUNI</tspan><tspan class="cls-9" x="53.13" y="0">C</tspan><tspan class="cls-10" x="57.33" y="0">A</tspan><tspan class="cls-11" x="61.07" y="0">TION</tspan><tspan class="cls-12" x="75.79" y="0"> </tspan><tspan x="77.16" y="0">DESIGN</tspan></text></g></g></svg>