<svg xmlns="http://www.w3.org/2000/svg" viewBox="0 0 57.81 61.75"><defs><style>.cls-1{fill:#ea953b;}</style></defs><g id="Layer_2" data-name="Layer 2"><g id="Livello_2" data-name="Livello 2"><path class="cls-1" d="M57.81,22.7A17.09,17.09,0,0,0,54,12a17.35,17.35,0,0,0-.74-10.44A2.36,2.36,0,0,0,51.8.21C50.86-.11,47.34-.7,40.15,4h0a34.8,34.8,0,0,0-9.47-1.14A34.94,34.94,0,0,0,21.19,4C13.82-.81,10,0,9.22.19A2.29,2.29,0,0,0,7.77,1.54,17.25,17.25,0,0,0,7,12a16.26,16.26,0,0,0-3.8,10.8c0,14.72,8.42,19.17,16.14,20.74a12,12,0,0,0-.81,3,.91.91,0,0,0,0,.33v4.07c-7,.59-8.53-3.53-8.68-4h0a1.75,1.75,0,0,0-.12-.32,11.74,11.74,0,0,0-6.65-5.92A2.33,2.33,0,0,0,1.59,45.1a7,7,0,0,1,3.78,3.23c.93,3,4.74,7.8,13.12,7.26v3.84a2.33,2.33,0,0,0,4.66,0V47a6.58,6.58,0,0,1,1.69-3.63,2.32,2.32,0,0,0-1.33-4c-8.12-1-15.62-3.62-15.62-16.73h0a11.46,11.46,0,0,1,3.41-8.54,2.48,2.48,0,0,0,.53-2.48,11.55,11.55,0,0,1-.14-7,20.23,20.23,0,0,1,7.86,3.69,2.4,2.4,0,0,0,2.05.28,28.81,28.81,0,0,1,9.13-1.24,28.69,28.69,0,0,1,9.11,1.24,2.4,2.4,0,0,0,2.05-.28,20.86,20.86,0,0,1,7.53-3.66,11.78,11.78,0,0,1-.17,7.12A2.32,2.32,0,0,0,49.69,14a12.93,12.93,0,0,1,3.5,8.66c0,13.08-7.89,15.8-15.62,16.73a2.31,2.31,0,0,0-1.12,4.16c.83.63,1.79,2.38,1.79,5.32V59.41a2.33,2.33,0,1,0,4.65,0V48.87a14.1,14.1,0,0,0-1-5.41C48.15,42.13,57.81,38,57.81,22.7Z"/></g></g></svg>