<svg xmlns="http://www.w3.org/2000/svg" viewBox="0 0 238.66 239.3"><defs><style>.cls-1{fill:#ea953b;}</style></defs><g id="Layer_2" data-name="Layer 2"><g id="Livello_2" data-name="Livello 2"><path class="cls-1" d="M106.55,15.1c-.14.86-.12,1.39.07,1.6s.67.29,1.45.25l0,.47c-.47,0-1.08,0-1.81.1L104,17.7l-2.44.22c-.76.07-1.37.14-1.84.21l.08-.46a5,5,0,0,0,1.16-.29,1.21,1.21,0,0,0,.63-.61,4.75,4.75,0,0,0,.35-1.27l2-11.63c.15-.86.12-1.39-.08-1.6S103.2,2,102.43,2l.08-.47,1.82-.11c.78-.05,1.6-.12,2.47-.19S108.3,1.11,109,1l1.86-.21-.07.47a4.08,4.08,0,0,0-1.2.28,1.23,1.23,0,0,0-.63.6,5.17,5.17,0,0,0-.36,1.29ZM106,9.61l.12-.47,8.09-.7-.14.48ZM113.67,3c.16-.86.13-1.39-.07-1.6a2.13,2.13,0,0,0-1.45-.26l.07-.46L114,.61l2.23-.17c.87-.07,1.7-.15,2.46-.23L120.59,0l-.08.47a4.57,4.57,0,0,0-1.2.27,1.29,1.29,0,0,0-.63.61,5.85,5.85,0,0,0-.36,1.29l-2,11.63c-.14.86-.12,1.39.07,1.6s.67.29,1.45.25l-.05.47c-.46,0-1.08,0-1.85.1l-2.47.2-2.23.2c-.74.07-1.35.14-1.82.21l.06-.46a5.54,5.54,0,0,0,1.2-.29,1.26,1.26,0,0,0,.64-.61,4.75,4.75,0,0,0,.35-1.27Z"/><path class="cls-1" d="M125.76,14.58q-.39,1.24-.15,1.59c.16.23.63.38,1.4.45l-.11.46c-.49-.06-1.12-.11-1.9-.15l-2.39-.13c-.83,0-1.6-.08-2.32-.1s-1.31,0-1.75,0l.14-.46a4.68,4.68,0,0,0,1.19-.12,1.2,1.2,0,0,0,.7-.52,4.51,4.51,0,0,0,.52-1.22l3.59-11.24c.26-.83.31-1.37.14-1.6s-.63-.38-1.39-.45l.13-.45,1.74.13,2.33.14L130,1,132,1l-.14.46a4.11,4.11,0,0,0-1.22.11,1.2,1.2,0,0,0-.71.52,5.35,5.35,0,0,0-.53,1.23Z"/><path class="cls-1" d="M136.82,10.3,137,10l.57.1a4.68,4.68,0,0,0,4.27-1.57,5.68,5.68,0,0,0,1.25-2.86A2.86,2.86,0,0,0,143,3.87a1.42,1.42,0,0,0-1.08-.73,1,1,0,0,0-.76.11,1.84,1.84,0,0,0-.62.86l-5.28,11.44a7.47,7.47,0,0,0-.41,1.05.63.63,0,0,0,.2.67,2.76,2.76,0,0,0,1.18.46l-.17.44c-.51-.12-1.11-.24-1.79-.37L132,17.39l-2.37-.4q-1.17-.19-1.86-.27l.17-.44a5.25,5.25,0,0,0,1.23,0,1.21,1.21,0,0,0,.78-.42,4.61,4.61,0,0,0,.67-1.14L135.56,4A4.73,4.73,0,0,0,135.94,3a.65.65,0,0,0-.21-.67,2.73,2.73,0,0,0-1.14-.46l.19-.43c.3.07.68.15,1.13.23l1.41.27,1.3.25c.8.14,1.46.24,2,.32l1.48.24a11.15,11.15,0,0,1,4.42,1.5,2.5,2.5,0,0,1,1,2.68A3.78,3.78,0,0,1,146,9.43a7.46,7.46,0,0,1-3.43,1.2,16.56,16.56,0,0,1-4.79-.21Zm.5-.21.54.14.52.14.53.14a20.33,20.33,0,0,1,2.8.81,4,4,0,0,1,1.83,1.26,2.12,2.12,0,0,1,.13,2.06l-.8,2.28a1.87,1.87,0,0,0-.12,1.09.64.64,0,0,0,.55.44,1.09,1.09,0,0,0,.88-.23,3.29,3.29,0,0,0,.78-1l.17-.29.52.09-.14.28a3.86,3.86,0,0,1-1.75,1.85,4.45,4.45,0,0,1-2.7.21,3.67,3.67,0,0,1-2.52-1.26,2.37,2.37,0,0,1-.18-2.25l.88-2.5a3.49,3.49,0,0,0,.24-1.34,1.38,1.38,0,0,0-.55-1,3.91,3.91,0,0,0-1.71-.62Z"/><path class="cls-1" d="M162.43,12.82a5.8,5.8,0,0,0,.4-2.14,2.18,2.18,0,0,0-.54-1.37,3.17,3.17,0,0,0-1.35-.8l-.07,0a4.43,4.43,0,0,0-1.16-.26,1.11,1.11,0,0,0-.79.29,6.35,6.35,0,0,0-.84,1l-6.5,9.86c-.47.73-.66,1.22-.57,1.48s.49.5,1.21.74l.28.1a4.66,4.66,0,0,0,2,.25,4.74,4.74,0,0,0,1.92-.7,11.82,11.82,0,0,0,2.17-1.81l.48.16a6.68,6.68,0,0,0-.46.62c-.18.25-.35.52-.52.8s-.4.61-.69,1.09-.56,1-.82,1.51c-.73-.28-1.55-.57-2.45-.89l-2.45-.83-2.1-.7-2.77-.92c-1-.32-1.89-.6-2.75-.86l.24-.4a5.89,5.89,0,0,0,1.21.21,1.24,1.24,0,0,0,.83-.31,4.21,4.21,0,0,0,.83-1l6.51-9.85c.47-.73.66-1.23.56-1.5s-.5-.53-1.22-.81l.25-.39,2.71,1c1,.34,1.87.65,2.75.94L160.8,8l2.25.74c.83.27,1.59.5,2.29.7l-.91,1.14c-.24.32-.5.7-.79,1.16l-.41.69c-.13.21-.23.4-.32.57ZM152.9,14l.23-.41,4.67,1.56-.23.41Zm2.48.34a2.76,2.76,0,0,0,1.45.1,4.51,4.51,0,0,0,1.38-.54,4.89,4.89,0,0,0,1.11-.95l.47.16c-.37.5-.67.92-.89,1.26s-.47.72-.74,1.15l-.45.71c-.14.2-.28.44-.42.69L156.7,18l-.48-.16a3.93,3.93,0,0,0,.18-1.13,2.39,2.39,0,0,0-.32-1.19,2,2,0,0,0-1.15-.83Z"/><path class="cls-1" d="M188.22,22.36l1.9,1.21c.69.43,1.35.84,2,1.21l1.67,1-.35.33a4.9,4.9,0,0,0-1.12-.51,1.26,1.26,0,0,0-.87.11,5.31,5.31,0,0,0-1.07.81l-8.67,8q-.94.9-.9,1.32t1,1.08l-.32.34c-.46-.33-1-.69-1.6-1.09l-1.94-1.24-2-1.25q-.94-.59-1.53-.9l.32-.34a5,5,0,0,0,1.14.5,1.26,1.26,0,0,0,.87-.1,4.63,4.63,0,0,0,1-.81l9.45-8.69-16.06,7.53-.43-.27,5.46-12.45-7.7,7.17a4.53,4.53,0,0,0-.79,1,1.29,1.29,0,0,0-.16,1.08,2.55,2.55,0,0,0,1.09,1.21l-.33.34a12.4,12.4,0,0,0-1-.74L166,27.41l-1-.63c-.34-.2-.63-.36-.86-.48l.32-.34a2,2,0,0,0,1.94.2,6.07,6.07,0,0,0,1.66-1.1l8.13-7.51q.94-.9.9-1.32t-1-1.08l.34-.33c.36.24.82.56,1.41.94s1.19.79,1.84,1.2c.32.2.64.4,1,.58l.86.49L177,27.61Z"/><path class="cls-1" d="M201.48,38.93a5.44,5.44,0,0,0,1.22-1.8,2.09,2.09,0,0,0,.06-1.47,3.31,3.31,0,0,0-.92-1.28l-.05,0a4.44,4.44,0,0,0-1-.7,1.06,1.06,0,0,0-.84,0,5.7,5.7,0,0,0-1.18.62l-9.9,6.43c-.72.49-1.1.86-1.11,1.14s.25.66.8,1.16l.23.2a4.63,4.63,0,0,0,1.71,1,4.54,4.54,0,0,0,2,.12,11,11,0,0,0,2.71-.79l.38.34c-.19.1-.42.23-.67.39s-.53.33-.8.52-.61.41-1.06.73-.91.67-1.36,1.05c-.56-.54-1.19-1.14-1.89-1.79L188,43c-.41-.37-1-.87-1.64-1.48s-1.4-1.27-2.17-1.95-1.49-1.31-2.17-1.89l.37-.27a5.76,5.76,0,0,0,1,.68,1.26,1.26,0,0,0,.88.05,4.68,4.68,0,0,0,1.18-.62l9.89-6.43c.73-.48,1.1-.86,1.12-1.14s-.25-.7-.8-1.23l.4-.27,2.09,1.95c.75.7,1.46,1.36,2.15,2l1.63,1.48,1.77,1.58c.65.58,1.26,1.1,1.81,1.56-.5.27-.93.49-1.28.69s-.74.44-1.18.74l-.66.46c-.2.15-.38.28-.52.4Zm-9.22-2.69.38-.28,3.65,3.3-.38.28Zm2.13,1.31a2.75,2.75,0,0,0,1.29.66,4.14,4.14,0,0,0,1.49.06,4.26,4.26,0,0,0,1.39-.43l.38.34c-.55.31-1,.58-1.33.8l-1.13.76-.7.46q-.32.21-.66.48l-1,.74-.37-.34a3.66,3.66,0,0,0,.61-1,2.27,2.27,0,0,0,.18-1.21,2,2,0,0,0-.72-1.23Z"/><path class="cls-1" d="M203.65,56.52c-.81.31-1.26.59-1.35.86s.08.73.51,1.39l-.43.18c-.25-.4-.58-.91-1-1.52l-1.27-1.86-1.41-2c-.44-.62-.81-1.11-1.11-1.49l.44-.16a5.32,5.32,0,0,0,.83.86,1.23,1.23,0,0,0,.84.24,4.76,4.76,0,0,0,1.29-.33l11.09-4c.82-.3,1.26-.59,1.35-.86s-.09-.74-.5-1.38l.44-.17,1,1.53c.43.64.89,1.32,1.39,2s.87,1.23,1.29,1.81l1.11,1.51-.44.17a4.16,4.16,0,0,0-.84-.9,1.21,1.21,0,0,0-.84-.25,6.12,6.12,0,0,0-1.3.33Zm14,.14c.82-.29,1.27-.57,1.35-.85s-.09-.74-.51-1.39l.45-.17,1,1.51c.41.62.83,1.24,1.26,1.85s1,1.39,1.43,2l1.11,1.51-.44.17a4.16,4.16,0,0,0-.84-.9,1.26,1.26,0,0,0-.84-.24,5.19,5.19,0,0,0-1.3.33l-11.09,4c-.82.31-1.27.6-1.35.86s.08.73.5,1.39L208,67c-.24-.4-.57-.92-1-1.56l-1.4-2c-.43-.62-.86-1.23-1.3-1.83s-.79-1.1-1.09-1.47l.43-.19a5.87,5.87,0,0,0,.85.9,1.24,1.24,0,0,0,.85.25,4.44,4.44,0,0,0,1.28-.34Zm-9.54-3.39.47-.13,4.64,6.66-.48.12Z"/><path class="cls-1" d="M213.69,72.92c-.85.19-1.33.41-1.46.66s0,.74.31,1.45l-.45.12c-.19-.45-.47-1-.81-1.72l-1.08-2.14c-.38-.73-.73-1.42-1.07-2.06s-.61-1.15-.84-1.53l.46-.11a5,5,0,0,0,.7,1,1.26,1.26,0,0,0,.8.36,4.79,4.79,0,0,0,1.32-.16l11.54-2.48c.85-.19,1.33-.42,1.45-.68s0-.73-.31-1.43l.47-.1c.18.39.43.91.74,1.56s.67,1.36,1,2.09.74,1.42,1.09,2.08l.94,1.74-.46.11a4.42,4.42,0,0,0-.71-1,1.25,1.25,0,0,0-.8-.35,5.37,5.37,0,0,0-1.33.15Z"/><path class="cls-1" d="M222.89,80.38l.39,0,.19.54a4.67,4.67,0,0,0,1.24,1.81A4.6,4.6,0,0,0,227,83.82a5.57,5.57,0,0,0,3.1-.33,2.78,2.78,0,0,0,1.46-1,1.41,1.41,0,0,0,.11-1.3,1,1,0,0,0-.48-.61,1.94,1.94,0,0,0-1.05-.11L217.54,81.6a5.94,5.94,0,0,0-1.11.17.59.59,0,0,0-.48.5,3,3,0,0,0,.18,1.25l-.46.07q-.22-.75-.57-1.74c-.23-.66-.48-1.37-.76-2.13s-.55-1.52-.82-2.26-.51-1.32-.69-1.74l.46-.07a5.1,5.1,0,0,0,.59,1.08,1.21,1.21,0,0,0,.75.46,4.41,4.41,0,0,0,1.33,0l11.75-1a5,5,0,0,0,1.11-.19.66.66,0,0,0,.47-.51,2.83,2.83,0,0,0-.17-1.23l.47,0c.09.29.21.65.36,1.09l.46,1.36c.17.47.31.89.44,1.25.28.76.51,1.39.71,1.88s.37,1,.53,1.41a11.18,11.18,0,0,1,.89,4.58A2.5,2.5,0,0,1,231.17,88a3.77,3.77,0,0,1-3-.13,7.47,7.47,0,0,1-2.75-2.39,16.09,16.09,0,0,1-2.19-4.25Zm.44.33.15.53c0,.18.09.35.14.53s.09.34.14.52a21.28,21.28,0,0,1,.68,2.83,4.17,4.17,0,0,1-.18,2.22,2.07,2.07,0,0,1-1.72,1.13l-2.38.45a1.84,1.84,0,0,0-1,.43.65.65,0,0,0-.1.7,1.08,1.08,0,0,0,.64.65,3.24,3.24,0,0,0,1.23.19h.34l.18.5h-.32a3.8,3.8,0,0,1-2.47-.59,4.46,4.46,0,0,1-1.53-2.24,3.76,3.76,0,0,1-.16-2.82,2.39,2.39,0,0,1,1.87-1.27l2.61-.48a3.32,3.32,0,0,0,1.28-.46,1.35,1.35,0,0,0,.6-1,3.83,3.83,0,0,0-.31-1.8Z"/><path class="cls-1" d="M233.44,103.87a5.66,5.66,0,0,0,2.05-.71,2.14,2.14,0,0,0,.92-1.15,3.16,3.16,0,0,0,0-1.57l0-.07a4.3,4.3,0,0,0-.35-1.14,1.13,1.13,0,0,0-.65-.54,5.47,5.47,0,0,0-1.32-.21l-11.78-.75c-.87,0-1.39,0-1.57.24s-.19.68-.05,1.42l.06.29a4.32,4.32,0,0,0,2.33,3.16,11.2,11.2,0,0,0,2.65,1l.1.5c-.21,0-.47-.07-.77-.1l-.95,0c-.3,0-.73,0-1.29-.05a16.6,16.6,0,0,0-1.72,0c-.12-.77-.27-1.63-.45-2.57s-.34-1.79-.49-2.54c-.11-.54-.25-1.26-.43-2.16s-.38-1.86-.58-2.87-.42-1.94-.62-2.81H219a4.81,4.81,0,0,0,.42,1.16,1.19,1.19,0,0,0,.67.57,4.45,4.45,0,0,0,1.31.21l11.78.75c.87,0,1.4,0,1.58-.25a2,2,0,0,0,.1-1.46l.47,0,.51,2.82c.19,1,.37,2,.55,2.86s.32,1.62.43,2.16c.14.69.29,1.47.47,2.32s.35,1.64.53,2.34l-1.44-.22c-.4,0-.86-.09-1.4-.11l-.8,0h-.65Zm-4.86-5.34a2.73,2.73,0,0,0,.63,1.3,4,4,0,0,0,1.16.93,4.35,4.35,0,0,0,1.37.49l.1.5c-.62-.08-1.14-.13-1.54-.15l-1.36-.07-.84,0h-.81l-1.22,0-.1-.5a3.56,3.56,0,0,0,1.07-.41,2.32,2.32,0,0,0,.87-.86,2,2,0,0,0,.15-1.42Zm-.94-2.33h.47l1,4.83h-.46Z"/><path class="cls-1" d="M238,130.94l-.09,2.25c0,.81-.06,1.58-.08,2.31s0,1.37,0,1.94l-.46-.13a4.17,4.17,0,0,0-.12-1.23,1.26,1.26,0,0,0-.52-.7,5.41,5.41,0,0,0-1.23-.52l-11.27-3.51c-.84-.25-1.37-.29-1.6-.12s-.38.63-.44,1.39l-.45-.11c.05-.56.1-1.21.13-1.93s.08-1.48.11-2.29.07-1.62.09-2.36,0-1.34,0-1.78l.45.11a5.22,5.22,0,0,0,.13,1.23,1.24,1.24,0,0,0,.53.71,4.54,4.54,0,0,0,1.22.51l12.25,3.85L222.11,120.4l0-.51,13.5-1.48-10-3.09a4.67,4.67,0,0,0-1.25-.21,1.34,1.34,0,0,0-1,.41,2.55,2.55,0,0,0-.5,1.54l-.45-.11c0-.27.08-.7.11-1.27s.05-1.06.07-1.46,0-.79,0-1.19a9.85,9.85,0,0,0,0-1l.46.11a2,2,0,0,0,.8,1.78,5.92,5.92,0,0,0,1.78.88l10.57,3.3q1.24.38,1.59.12c.23-.17.38-.63.44-1.4l.45.14c0,.43-.07,1-.11,1.68s-.09,1.43-.12,2.2c0,.38,0,.76,0,1.12v1l-10.53.9Z"/><path class="cls-1" d="M230.27,150.73a5.65,5.65,0,0,0,2.16.16,2.09,2.09,0,0,0,1.3-.69,3.12,3.12,0,0,0,.66-1.43v-.07a4.32,4.32,0,0,0,.13-1.18,1.14,1.14,0,0,0-.38-.76,6.11,6.11,0,0,0-1.13-.71l-10.51-5.37c-.78-.39-1.29-.52-1.54-.4s-.45.54-.6,1.28l-.07.29a4.27,4.27,0,0,0,.88,3.82,11,11,0,0,0,2,2l-.11.5c-.18-.12-.4-.25-.67-.4l-.84-.43-1.17-.55a16.47,16.47,0,0,0-1.59-.65c.2-.76.4-1.61.61-2.54s.4-1.78.56-2.53c.11-.54.27-1.26.46-2.16s.4-1.85.61-2.85.39-2,.55-2.83l.43.19a5.22,5.22,0,0,0-.08,1.23,1.19,1.19,0,0,0,.4.79,4.54,4.54,0,0,0,1.11.71L234,141.49c.78.38,1.3.51,1.55.39s.48-.56.67-1.3l.43.21c-.2.86-.42,1.79-.65,2.79s-.44,1.94-.64,2.84-.35,1.61-.46,2.15c-.15.69-.31,1.47-.49,2.32s-.33,1.64-.45,2.35l-1.23-.77a10.7,10.7,0,0,0-1.24-.65l-.72-.34-.61-.26Zm-2.34-6.84a2.74,2.74,0,0,0,.07,1.45,4.18,4.18,0,0,0,.69,1.32,4.35,4.35,0,0,0,1.07,1l-.11.5c-.54-.32-1-.57-1.36-.75l-1.22-.61-.75-.37c-.22-.11-.47-.23-.74-.34l-1.13-.47.11-.49a3.87,3.87,0,0,0,1.14,0,2.44,2.44,0,0,0,1.15-.45,2,2,0,0,0,.7-1.24Zm.07-2.5.43.19-1,4.81-.43-.19Z"/><path class="cls-1" d="M222.92,173.57q1,.85,1.41.75c.28-.07.6-.45,1-1.13l.36.31c-.21.4-.48.94-.81,1.61s-.66,1.33-1,2-.72,1.54-1,2.25-.57,1.27-.76,1.71l-.37-.3a4.52,4.52,0,0,0,.37-1.18,1.26,1.26,0,0,0-.21-.84,5.65,5.65,0,0,0-.93-1l-9-7.63q-1-.82-1.41-.75c-.28.06-.6.44-1,1.13l-.37-.28q.33-.6.84-1.65c.34-.69.7-1.44,1.07-2.23s.64-1.35.95-2,.56-1.23.73-1.68l.38.28a5,5,0,0,0-.36,1.19,1.24,1.24,0,0,0,.21.86,4.37,4.37,0,0,0,.92.94Zm-6.83-12.22c-.67-.56-1.14-.8-1.42-.75s-.59.44-.95,1.13l-.38-.28c.23-.42.51-1,.83-1.62s.65-1.34,1-2l1-2.22c.32-.69.56-1.25.74-1.7l.37.3a4.61,4.61,0,0,0-.34,1.15,1.24,1.24,0,0,0,.2.85,4.73,4.73,0,0,0,.93.95l9,7.63c.67.56,1.14.8,1.42.74s.59-.44.94-1.12l.37.3c-.2.4-.48.94-.82,1.64s-.71,1.43-1.08,2.22-.64,1.36-.93,2-.55,1.22-.77,1.71l-.36-.3a4.09,4.09,0,0,0,.36-1.18,1.23,1.23,0,0,0-.2-.85,5.66,5.66,0,0,0-.93-1Zm5,2.26.35.34L218,171.29l-.33-.36Z"/><path class="cls-1" d="M206.83,178.2c-.58-.64-1-.95-1.29-.93s-.65.35-1.1,1l-.34-.33c.3-.4.66-.92,1.1-1.57s.87-1.31,1.31-2l1.27-2c.39-.61.69-1.11.91-1.5l.32.35a5.14,5.14,0,0,0-.5,1.09,1.32,1.32,0,0,0,.09.87,4.69,4.69,0,0,0,.79,1.07l7.88,8.78c.59.65,1,.95,1.31.93s.65-.35,1.09-1l.33.35-1,1.43c-.41.6-.84,1.25-1.29,1.94s-.87,1.34-1.27,2l-1,1.68-.32-.34a4.6,4.6,0,0,0,.52-1.12,1.31,1.31,0,0,0-.09-.87,5.45,5.45,0,0,0-.79-1.08Z"/><path class="cls-1" d="M204.88,190.43l-.4.39-.38.38-.39.39a20.36,20.36,0,0,1-2.12,2,4,4,0,0,1-2,.94,2.08,2.08,0,0,1-1.84-.92l-1.57-1.85a1.75,1.75,0,0,0-.88-.65.65.65,0,0,0-.65.25,1.1,1.1,0,0,0-.25.88,3.16,3.16,0,0,0,.45,1.16l.17.3-.34.4-.17-.26a3.85,3.85,0,0,1-.72-2.45A4.63,4.63,0,0,1,195,189a3.7,3.7,0,0,1,2.37-1.53,2.37,2.37,0,0,1,2,1l1.71,2a3.3,3.3,0,0,0,1,.88,1.37,1.37,0,0,0,1.14,0,3.94,3.94,0,0,0,1.41-1.16Zm.06-.54.21.32-.37.44a4.62,4.62,0,0,0-.8,4.48,5.54,5.54,0,0,0,1.83,2.52,2.75,2.75,0,0,0,1.58.79,1.45,1.45,0,0,0,1.18-.56,1.12,1.12,0,0,0,.29-.72,2,2,0,0,0-.43-1l-7.21-10.35a6.54,6.54,0,0,0-.7-.88.61.61,0,0,0-.67-.17,2.9,2.9,0,0,0-1,.79l-.29-.37c.36-.38.77-.83,1.23-1.36s1-1.1,1.47-1.72l1.55-1.84c.5-.6.9-1.09,1.17-1.46l.29.37a5.36,5.36,0,0,0-.65,1,1.19,1.19,0,0,0,0,.89,4.62,4.62,0,0,0,.64,1.15L211,192a5.73,5.73,0,0,0,.71.87.68.68,0,0,0,.69.15,2.84,2.84,0,0,0,1-.75l.28.38c-.21.23-.47.51-.77.86s-.62.7-1,1.08l-.87,1c-.52.62-1,1.13-1.28,1.55s-.65.8-1,1.16a11.14,11.14,0,0,1-3.53,3,2.52,2.52,0,0,1-2.84-.46,3.79,3.79,0,0,1-1.36-2.65,7.37,7.37,0,0,1,.7-3.57,16.62,16.62,0,0,1,2.6-4Z"/><path class="cls-1" d="M189.83,210.74a5.74,5.74,0,0,0,1.65,1.42,2.18,2.18,0,0,0,1.45.23,3.32,3.32,0,0,0,1.38-.77l.05,0a4.66,4.66,0,0,0,.81-.88,1.09,1.09,0,0,0,.14-.83,5.61,5.61,0,0,0-.48-1.25L189.6,198c-.39-.78-.72-1.19-1-1.24s-.68.17-1.25.67l-.22.19a4.71,4.71,0,0,0-1.22,1.59,4.78,4.78,0,0,0-.36,2A11.26,11.26,0,0,0,186,204l-.38.34c-.08-.2-.18-.44-.31-.72l-.42-.85c-.13-.27-.34-.65-.6-1.14s-.56-1-.89-1.47c.61-.49,1.28-1,2-1.67l2-1.7,1.66-1.45,2.19-1.93c.77-.69,1.48-1.33,2.13-1.94l.23.41a5.27,5.27,0,0,0-.8.94,1.19,1.19,0,0,0-.15.87,4.48,4.48,0,0,0,.47,1.24l5.23,10.58c.39.77.73,1.19,1,1.24s.71-.16,1.31-.65l.22.43-2.19,1.85c-.78.66-1.51,1.29-2.2,1.9l-1.67,1.45c-.53.46-1.12,1-1.77,1.57s-1.24,1.12-1.76,1.62c-.21-.54-.38-1-.53-1.36a13.67,13.67,0,0,0-.6-1.26l-.39-.7q-.18-.33-.33-.57Zm2.21-6.88a2.84,2.84,0,0,0-.82,1.2,4.26,4.26,0,0,0-.22,1.47,4,4,0,0,0,.26,1.43l-.38.34c-.25-.59-.46-1.06-.64-1.42l-.62-1.21c-.15-.28-.27-.53-.38-.75a7.67,7.67,0,0,0-.4-.71l-.62-1.05.38-.33a3.42,3.42,0,0,0,.89.72,2.32,2.32,0,0,0,1.18.32,2,2,0,0,0,1.31-.57Zm1.55-2,.23.41-3.7,3.24-.24-.41Z"/><path class="cls-1" d="M168.64,228.21l-2,1c-.72.37-1.4.74-2,1.09l-1.7.93-.11-.46a4.33,4.33,0,0,0,1-.71,1.27,1.27,0,0,0,.35-.81A5.48,5.48,0,0,0,164,228l-2.57-11.52q-.3-1.27-.69-1.44c-.26-.12-.73,0-1.43.31l-.13-.45q.78-.35,1.74-.84c.65-.32,1.33-.67,2-1.05l2.09-1.1c.65-.35,1.17-.64,1.55-.87l.13.45a5.66,5.66,0,0,0-1,.73,1.2,1.2,0,0,0-.34.8,4.4,4.4,0,0,0,.16,1.32l2.76,12.54,1.57-17.67.45-.23,8,11L176,209.66a4.73,4.73,0,0,0-.44-1.18,1.3,1.3,0,0,0-.86-.68,2.5,2.5,0,0,0-1.59.33l-.13-.45c.26-.1.64-.28,1.16-.54l1.3-.66,1.05-.56a8.59,8.59,0,0,0,.85-.51l.14.45a2,2,0,0,0-1.15,1.58,6.09,6.09,0,0,0,.12,2l2.4,10.8q.3,1.28.69,1.44c.26.12.74,0,1.43-.31l.11.46-1.52.74-2,1-1,.54-.86.5-6-8.69Z"/><path class="cls-1" d="M147.63,231.32a5.5,5.5,0,0,0,.94,2,2.13,2.13,0,0,0,1.24.79,3.15,3.15,0,0,0,1.57-.15l.06,0a3.92,3.92,0,0,0,1.09-.48,1.08,1.08,0,0,0,.47-.7,6.25,6.25,0,0,0,.06-1.33l-.56-11.8c-.05-.86-.19-1.38-.42-1.53s-.7-.12-1.41.11l-.29.09a4.58,4.58,0,0,0-1.74,1,4.7,4.7,0,0,0-1.14,1.7,11.74,11.74,0,0,0-.68,2.74l-.49.15a6.3,6.3,0,0,0,0-.77c0-.31,0-.62-.05-1s0-.73-.09-1.29-.13-1.12-.23-1.7c.75-.21,1.59-.45,2.51-.74l2.47-.77,2.1-.67,2.78-.89c1-.32,1.88-.63,2.72-.93l0,.47a5.35,5.35,0,0,0-1.1.54,1.2,1.2,0,0,0-.49.74,4.35,4.35,0,0,0-.06,1.32l.56,11.79c.05.87.19,1.38.43,1.54s.72.14,1.46-.07l0,.48-2.74.82c-1,.3-1.91.58-2.78.86l-2.11.67-2.25.73c-.83.27-1.59.53-2.26.78,0-.57,0-1.06.05-1.46s0-.86,0-1.39c0-.28-.05-.55-.08-.8s0-.47-.07-.65Zm4.77-5.42a2.83,2.83,0,0,0-1.23.77,4.32,4.32,0,0,0-.79,1.26,4,4,0,0,0-.33,1.42l-.49.15c0-.63,0-1.14,0-1.55s0-.85-.08-1.36c0-.31,0-.59-.05-.84s0-.51-.08-.81-.09-.69-.15-1.2l.48-.16a3.56,3.56,0,0,0,.53,1,2.21,2.21,0,0,0,1,.77,2,2,0,0,0,1.42,0Zm2.21-1.18,0,.46L150,226.67l-.05-.46Z"/><path class="cls-1" d="M124.13,236.31c-.16.86-.14,1.39.06,1.6a2.17,2.17,0,0,0,1.45.27l-.08.46-1.81.1-2.23.15-2.47.21-1.86.2.08-.47a4.47,4.47,0,0,0,1.2-.27,1.23,1.23,0,0,0,.63-.6,5.2,5.2,0,0,0,.38-1.29l2.13-11.61c.15-.86.13-1.39,0-1.6s-.67-.29-1.45-.26l0-.47c.46,0,1.08,0,1.85-.09l2.47-.18,2.23-.18c.75-.07,1.35-.14,1.82-.2l-.05.46a5.33,5.33,0,0,0-1.2.28,1.25,1.25,0,0,0-.65.61,4.27,4.27,0,0,0-.36,1.27Zm7.75-6.51-.12.47-8.1.63.15-.47Zm-.54-5.5c.15-.85.13-1.39-.06-1.6s-.67-.29-1.45-.26l.06-.47c.47,0,1.08,0,1.81-.08l2.25-.17,2.44-.2c.76-.07,1.37-.13,1.84-.2l-.08.47a5.11,5.11,0,0,0-1.16.27,1.26,1.26,0,0,0-.64.61,5,5,0,0,0-.36,1.27l-2.14,11.61c-.15.86-.12,1.39.07,1.6s.67.29,1.44.27l-.08.46-1.83.1c-.77,0-1.59.1-2.46.17s-1.5.12-2.21.2l-1.87.19.08-.47a4.47,4.47,0,0,0,1.2-.27,1.25,1.25,0,0,0,.64-.6,5.76,5.76,0,0,0,.37-1.29Z"/><path class="cls-1" d="M112.12,224.68c.27-.83.32-1.36.16-1.59s-.62-.39-1.4-.46l.12-.46c.49.06,1.12.12,1.9.17l2.39.14,2.32.12c.72,0,1.3.05,1.75.05l-.14.45a4.71,4.71,0,0,0-1.2.12,1.19,1.19,0,0,0-.71.51,4.71,4.71,0,0,0-.53,1.21l-3.67,11.22q-.39,1.25-.15,1.59c.16.23.63.39,1.39.46l-.14.45-1.73-.14-2.33-.16c-.81,0-1.59-.08-2.34-.1l-2-.07.14-.45a4.22,4.22,0,0,0,1.23-.11,1.25,1.25,0,0,0,.71-.51,5.87,5.87,0,0,0,.54-1.22Z"/><path class="cls-1" d="M101,228.87l-.18.34-.57-.1A4.65,4.65,0,0,0,96,230.65a5.71,5.71,0,0,0-1.27,2.84,2.8,2.8,0,0,0,.11,1.76,1.41,1.41,0,0,0,1.07.75,1.09,1.09,0,0,0,.77-.1,2,2,0,0,0,.62-.86l5.37-11.41a7,7,0,0,0,.41-1,.61.61,0,0,0-.19-.67,2.74,2.74,0,0,0-1.18-.47l.18-.44c.51.12,1.1.25,1.79.39l2.22.42,2.37.42c.78.13,1.4.23,1.85.28L110,223a4.84,4.84,0,0,0-1.23,0,1.21,1.21,0,0,0-.78.42,4.58,4.58,0,0,0-.68,1.14l-5,10.67a4.37,4.37,0,0,0-.39,1,.66.66,0,0,0,.2.67,2.71,2.71,0,0,0,1.14.47l-.19.43-1.13-.24-1.41-.28c-.49-.1-.92-.19-1.3-.25-.8-.15-1.46-.27-2-.35s-1-.16-1.49-.25a11,11,0,0,1-4.4-1.53,2.51,2.51,0,0,1-1-2.69,3.85,3.85,0,0,1,1.62-2.51,7.61,7.61,0,0,1,3.44-1.17,16.69,16.69,0,0,1,4.79.25Zm-.51.21-.53-.14-.53-.14-.52-.15a18.44,18.44,0,0,1-2.79-.84,4,4,0,0,1-1.83-1.27,2.1,2.1,0,0,1-.11-2L95,222.2a1.78,1.78,0,0,0,.13-1.08.66.66,0,0,0-.55-.44,1.08,1.08,0,0,0-.89.22,3.23,3.23,0,0,0-.78,1l-.17.29-.52-.09.14-.28A3.82,3.82,0,0,1,94.16,220a4.46,4.46,0,0,1,2.7-.19A3.67,3.67,0,0,1,99.37,221a2.37,2.37,0,0,1,.16,2.25l-.9,2.5a3.27,3.27,0,0,0-.25,1.33,1.35,1.35,0,0,0,.54,1,3.77,3.77,0,0,0,1.71.64Z"/><path class="cls-1" d="M75.43,226.16a5.76,5.76,0,0,0-.41,2.13,2.09,2.09,0,0,0,.52,1.37,3.19,3.19,0,0,0,1.35.82l.07,0a4.43,4.43,0,0,0,1.16.27,1.12,1.12,0,0,0,.79-.29,5.94,5.94,0,0,0,.84-1l6.58-9.8c.48-.73.67-1.22.58-1.48s-.49-.51-1.2-.75l-.28-.1a4.46,4.46,0,0,0-2-.26,4.68,4.68,0,0,0-1.93.68,12.43,12.43,0,0,0-2.19,1.79l-.47-.16c.13-.16.29-.37.46-.62s.35-.51.53-.79.4-.61.69-1.09.57-1,.83-1.5c.73.29,1.55.59,2.45.91l2.45.85,2.08.72,2.77.93c1,.33,1.89.62,2.74.88l-.24.41a5.39,5.39,0,0,0-1.21-.22,1.18,1.18,0,0,0-.83.3,4.35,4.35,0,0,0-.84,1L84.17,231c-.48.73-.67,1.23-.58,1.49s.5.54,1.22.82l-.26.4-2.69-1c-1-.35-1.88-.67-2.75-1L77,231l-2.25-.76q-1.25-.42-2.28-.72c.36-.45.67-.82.91-1.14a13.5,13.5,0,0,0,.8-1.14l.42-.69q.2-.31.33-.57Zm7.07-1.51a2.76,2.76,0,0,0-1.45-.11,4.21,4.21,0,0,0-1.39.53,4.26,4.26,0,0,0-1.11.94l-.48-.16c.38-.5.68-.92.91-1.26l.74-1.14.46-.71a7,7,0,0,0,.42-.69l.6-1.06.48.16a3.35,3.35,0,0,0-.18,1.13,2.19,2.19,0,0,0,.31,1.19,2,2,0,0,0,1.14.85ZM85,225l-.23.41-4.66-1.6.24-.41Z"/><path class="cls-1" d="M49.73,216.43l-1.9-1.22q-1-.66-1.95-1.23l-1.66-1,.35-.32a4.12,4.12,0,0,0,1.11.51,1.25,1.25,0,0,0,.87-.09,5.58,5.58,0,0,0,1.08-.8l8.73-7.95c.63-.59.94-1,.91-1.31s-.36-.65-1-1.09l.32-.34c.46.34,1,.7,1.6,1.1l1.92,1.25,2,1.27c.63.4,1.14.7,1.53.92l-.32.33a5.63,5.63,0,0,0-1.14-.51,1.21,1.21,0,0,0-.87.1,4.67,4.67,0,0,0-1.06.79l-9.51,8.62L66.87,208l.42.27-5.55,12.4,7.75-7.1a4.8,4.8,0,0,0,.8-1,1.32,1.32,0,0,0,.17-1.09,2.62,2.62,0,0,0-1.08-1.21l.33-.34a12.4,12.4,0,0,0,1,.74c.48.32.88.59,1.22.8s.67.43,1,.64.63.37.86.49l-.32.33a2.1,2.1,0,0,0-2-.21,6.19,6.19,0,0,0-1.66,1.09l-8.18,7.45c-.64.6-.94,1-.92,1.32s.36.64,1,1.08l-.35.33-1.4-1c-.57-.39-1.18-.79-1.83-1.21l-1-.59-.86-.49L61,211.27Z"/><path class="cls-1" d="M36.58,199.75a5.44,5.44,0,0,0-1.23,1.78,2.09,2.09,0,0,0-.07,1.47,3.2,3.2,0,0,0,.91,1.29l.05.05a4.2,4.2,0,0,0,1,.7,1.11,1.11,0,0,0,.84.06,6,6,0,0,0,1.19-.62l9.94-6.35c.73-.48,1.11-.85,1.13-1.13s-.25-.66-.8-1.17l-.22-.2a4.31,4.31,0,0,0-3.75-1.17,11.57,11.57,0,0,0-2.72.77l-.37-.34.68-.38.8-.52c.25-.16.61-.4,1.06-.72s.92-.67,1.37-1c.55.55,1.18,1.15,1.88,1.8s1.34,1.24,1.9,1.76l1.63,1.49,2.16,2c.76.69,1.48,1.32,2.16,1.9l-.38.28a5.38,5.38,0,0,0-1-.69,1.21,1.21,0,0,0-.88-.06,4.63,4.63,0,0,0-1.17.6l-9.95,6.36c-.73.48-1.11.86-1.13,1.14s.25.69.79,1.23l-.4.27c-.64-.62-1.33-1.27-2.08-2l-2.12-2-1.63-1.49c-.52-.48-1.11-1-1.76-1.59s-1.24-1.11-1.8-1.58l1.29-.67a12,12,0,0,0,1.19-.74l.66-.46.53-.39Zm7.08,1.43a2.72,2.72,0,0,0-1.29-.67,4.37,4.37,0,0,0-2.88.35l-.37-.34c.55-.31,1-.57,1.33-.79l1.14-.75.71-.46.66-.47,1-.74.37.34a3.85,3.85,0,0,0-.62,1,2.36,2.36,0,0,0-.19,1.21,2,2,0,0,0,.72,1.23Zm2.12,1.33-.38.27-3.62-3.32.37-.28Z"/><path class="cls-1" d="M20.55,181.9c-.82.29-1.28.57-1.35.85s.08.74.49,1.39l-.45.17c-.24-.39-.57-.9-1-1.52s-.82-1.24-1.25-1.86-1-1.4-1.41-2l-1.1-1.52.44-.16a4.83,4.83,0,0,0,.83.91,1.26,1.26,0,0,0,.84.24,5,5,0,0,0,1.3-.32L29,174.11c.82-.3,1.27-.59,1.36-.85s-.08-.73-.5-1.39l.43-.18c.24.39.57.91,1,1.56l1.39,2L34,177.13c.43.61.79,1.1,1.08,1.48l-.43.18a5.44,5.44,0,0,0-.84-.9,1.2,1.2,0,0,0-.85-.25,4.29,4.29,0,0,0-1.28.32Zm14,.25c.82-.3,1.27-.58,1.36-.85s-.08-.72-.49-1.39l.43-.18c.24.41.57.92,1,1.53l1.26,1.87c.5.72,1,1.39,1.4,2s.8,1.12,1.09,1.49l-.44.17a5.07,5.07,0,0,0-.82-.87,1.18,1.18,0,0,0-.84-.25,4.68,4.68,0,0,0-1.29.32L26.07,190c-.82.3-1.27.58-1.35.85s.07.74.48,1.39l-.44.16c-.24-.37-.57-.89-1-1.53s-.88-1.34-1.38-2.06-.85-1.23-1.27-1.81-.78-1.09-1.1-1.52l.45-.17a4.24,4.24,0,0,0,.83.91,1.23,1.23,0,0,0,.84.25,5.55,5.55,0,0,0,1.3-.32Zm-4.49,3.22-.47.12L25,178.8l.49-.11Z"/><path class="cls-1" d="M24.64,165.67c.85-.18,1.34-.4,1.46-.65s0-.73-.3-1.45l.45-.12c.2.45.46,1,.81,1.73s.69,1.42,1.06,2.15.72,1.43,1.05,2.07.61,1.15.83,1.54l-.46.1a4.72,4.72,0,0,0-.7-1,1.24,1.24,0,0,0-.79-.36,4.71,4.71,0,0,0-1.32.15l-11.56,2.39c-.85.19-1.34.41-1.46.67a2.08,2.08,0,0,0,.3,1.43l-.46.1-.74-1.57q-.47-1-1-2.1c-.37-.72-.73-1.42-1.08-2.08s-.65-1.25-.92-1.75l.46-.11a4.54,4.54,0,0,0,.7,1,1.31,1.31,0,0,0,.8.36,5.77,5.77,0,0,0,1.33-.14Z"/><path class="cls-1" d="M15.49,158.14H15.1l-.19-.54a4.53,4.53,0,0,0-1.23-1.82,4.59,4.59,0,0,0-2.23-1.13,5.64,5.64,0,0,0-3.1.31,2.71,2.71,0,0,0-1.47,1,1.41,1.41,0,0,0-.12,1.3,1.07,1.07,0,0,0,.47.61,1.92,1.92,0,0,0,1,.12l12.57-1A6.74,6.74,0,0,0,22,156.8a.63.63,0,0,0,.49-.5,3,3,0,0,0-.18-1.26l.47-.06c.14.5.33,1.08.55,1.74s.47,1.38.74,2.14.54,1.52.81,2.27.49,1.32.68,1.75l-.47.06a5.06,5.06,0,0,0-.58-1.09,1.18,1.18,0,0,0-.75-.46,4.54,4.54,0,0,0-1.32,0l-11.76.95a5,5,0,0,0-1.11.18.66.66,0,0,0-.48.51,2.8,2.8,0,0,0,.17,1.22l-.48.05c-.08-.3-.2-.66-.35-1.1s-.29-.89-.45-1.36-.3-.89-.43-1.25c-.27-.77-.5-1.4-.69-1.9s-.36-1-.52-1.41a11.29,11.29,0,0,1-.86-4.59,2.5,2.5,0,0,1,1.83-2.21,3.73,3.73,0,0,1,3,.16A7.38,7.38,0,0,1,13,153a16.45,16.45,0,0,1,2.16,4.28Zm-.44-.34c0-.17-.09-.35-.14-.53s-.09-.35-.13-.53-.09-.34-.14-.52a19.41,19.41,0,0,1-.66-2.84,4.06,4.06,0,0,1,.2-2.22A2.1,2.1,0,0,1,15.91,150l2.38-.42a1.84,1.84,0,0,0,1-.43.65.65,0,0,0,.11-.7,1.09,1.09,0,0,0-.63-.65,3.29,3.29,0,0,0-1.23-.2h-.34l-.18-.5.31,0a3.85,3.85,0,0,1,2.47.62A4.49,4.49,0,0,1,21.33,150a3.73,3.73,0,0,1,.13,2.82,2.37,2.37,0,0,1-1.87,1.25l-2.62.46a3.49,3.49,0,0,0-1.28.45,1.41,1.41,0,0,0-.61,1,3.75,3.75,0,0,0,.29,1.8Z"/><path class="cls-1" d="M5.13,134.59a5.73,5.73,0,0,0-2.06.7,2.11,2.11,0,0,0-.93,1.14,3.2,3.2,0,0,0,0,1.58v.06a4.35,4.35,0,0,0,.34,1.14,1.11,1.11,0,0,0,.65.55,5.46,5.46,0,0,0,1.31.21l11.78.84c.87.06,1.39,0,1.57-.23s.2-.67.06-1.41l-.06-.3A4.7,4.7,0,0,0,17,137a4.67,4.67,0,0,0-1.55-1.33,11.5,11.5,0,0,0-2.64-1l-.1-.5c.21,0,.47.07.77.1l.95.07,1.29.06c.56,0,1.13,0,1.72,0,.11.78.26,1.63.43,2.58s.33,1.79.47,2.54c.11.54.24,1.27.42,2.17s.36,1.86.56,2.87.4,1.94.59,2.81h-.47a4.75,4.75,0,0,0-.41-1.16,1.15,1.15,0,0,0-.67-.57,4.27,4.27,0,0,0-1.3-.22L5.3,144.56c-.87-.05-1.39,0-1.58.24a2.1,2.1,0,0,0-.11,1.46l-.47,0c-.15-.88-.32-1.82-.49-2.82s-.35-2-.53-2.87-.31-1.62-.41-2.16c-.13-.7-.29-1.47-.46-2.33s-.34-1.64-.5-2.34l1.43.23a12.65,12.65,0,0,0,1.4.12l.8,0H5ZM10,140a2.75,2.75,0,0,0-.62-1.31,4.48,4.48,0,0,0-2.53-1.44l-.09-.49c.62.08,1.14.13,1.54.16l1.36.08.84.05.81,0h1.22l.09.5a3.62,3.62,0,0,0-1.07.4,2.25,2.25,0,0,0-.87.86,2,2,0,0,0-.17,1.41Zm.92,2.33H10.4l-.93-4.84h.47Z"/><path class="cls-1" d="M.76,107.45l.11-2.25Q.93,104,1,102.89c0-.73,0-1.38.05-2l.46.14a4.22,4.22,0,0,0,.11,1.23,1.26,1.26,0,0,0,.52.7,4.94,4.94,0,0,0,1.23.53l11.24,3.6c.83.26,1.36.3,1.59.14s.38-.63.45-1.4l.46.12c-.06.56-.11,1.21-.16,1.92s-.08,1.49-.12,2.3-.08,1.61-.11,2.36,0,1.33,0,1.78l-.45-.11a6,6,0,0,0-.12-1.24,1.22,1.22,0,0,0-.52-.71,5,5,0,0,0-1.22-.52L2.12,107.84l14.46,10.27,0,.51L3,120l10,3.16a4.67,4.67,0,0,0,1.25.21,1.33,1.33,0,0,0,1-.39,2.61,2.61,0,0,0,.51-1.54l.46.11a10.94,10.94,0,0,0-.12,1.27c0,.58-.07,1.06-.09,1.46s0,.8,0,1.2,0,.72,0,1l-.45-.12a2,2,0,0,0-.79-1.79,5.89,5.89,0,0,0-1.77-.89L2.5,120.29c-.83-.25-1.37-.3-1.6-.14s-.38.63-.45,1.4L0,121.41c0-.43.08-1,.13-1.69s.09-1.42.13-2.19c0-.38,0-.76,0-1.12s0-.7,0-1l10.54-.82Z"/><path class="cls-1" d="M8.64,87.76a5.49,5.49,0,0,0-2.16-.17,2.1,2.1,0,0,0-1.31.67,3.39,3.39,0,0,0-.66,1.43v.07a4.4,4.4,0,0,0-.14,1.18,1.13,1.13,0,0,0,.37.76,5.57,5.57,0,0,0,1.13.72l10.47,5.45c.78.39,1.29.53,1.53.41s.45-.54.62-1.27l.06-.29a4.26,4.26,0,0,0-.85-3.84,11.9,11.9,0,0,0-2-2l.11-.49q.27.18.66.39c.27.15.55.3.85.44s.65.33,1.16.57,1,.45,1.58.66c-.2.75-.41,1.6-.62,2.53s-.41,1.78-.58,2.52l-.48,2.16-.63,2.85q-.31,1.51-.57,2.82l-.43-.19a4.79,4.79,0,0,0,.09-1.23,1.16,1.16,0,0,0-.39-.79,4.25,4.25,0,0,0-1.11-.72L4.84,97c-.78-.4-1.29-.53-1.55-.41s-.48.56-.68,1.3l-.42-.21.67-2.79c.24-1,.46-1.93.66-2.83L4,89.88c.15-.69.32-1.46.5-2.31s.34-1.64.47-2.35L6.2,86a13,13,0,0,0,1.23.67l.72.34.6.26Zm2.29,6.85a2.85,2.85,0,0,0,0-1.45,4.55,4.55,0,0,0-1.75-2.32l.11-.49c.54.32,1,.58,1.35.76l1.22.61.75.38a7.37,7.37,0,0,0,.74.34l1.12.48-.11.49a3.87,3.87,0,0,0-1.14,0A2.24,2.24,0,0,0,12,93.8,2,2,0,0,0,11.31,95Zm-.09,2.51-.43-.19,1.08-4.81.43.19Z"/><path class="cls-1" d="M22.91,77.23c.67.56,1.13.81,1.41.75s.59-.42,1-1.11l.38.28c-.24.41-.52.95-.85,1.61s-.66,1.33-1,2L22.76,83c-.32.69-.57,1.25-.75,1.7l-.36-.31A5.16,5.16,0,0,0,22,83.24a1.24,1.24,0,0,0-.21-.86,4.53,4.53,0,0,0-.91-.95l-8.95-7.7c-.67-.56-1.14-.81-1.42-.75s-.59.44-.95,1.11l-.37-.3c.21-.4.49-.94.84-1.63s.72-1.43,1.1-2.21.65-1.36.94-2l.78-1.71.36.3a4.17,4.17,0,0,0-.37,1.18,1.23,1.23,0,0,0,.2.85,5.48,5.48,0,0,0,.92,1ZM16.17,65c-.66-.57-1.13-.83-1.41-.76s-.6.45-1,1.12l-.36-.3c.21-.41.49-.94.82-1.61s.67-1.33,1-2,.73-1.53,1.06-2.23l.77-1.71.37.3a4.25,4.25,0,0,0-.38,1.18,1.23,1.23,0,0,0,.2.85,5.25,5.25,0,0,0,.93,1l8.94,7.7c.67.56,1.14.81,1.41.76s.6-.43,1-1.12l.37.28c-.23.4-.51.95-.86,1.64L28,72.23c-.33.68-.65,1.35-1,2s-.57,1.23-.74,1.67l-.38-.29a5.57,5.57,0,0,0,.37-1.17,1.3,1.3,0,0,0-.2-.87,4.37,4.37,0,0,0-.92-.95Zm1.72,10-.34-.35,3.53-7.31.33.37Z"/><path class="cls-1" d="M32.29,60.45c.58.65,1,1,1.29.94s.65-.34,1.11-1l.33.33c-.3.39-.66.91-1.1,1.55s-.89,1.31-1.34,2L31.3,66.23c-.39.6-.7,1.1-.92,1.49l-.32-.35a4.79,4.79,0,0,0,.51-1.09,1.21,1.21,0,0,0-.09-.87,4.14,4.14,0,0,0-.78-1.07l-7.81-8.85c-.59-.65-1-1-1.3-.93s-.65.34-1.1,1l-.32-.35c.25-.34.58-.82,1-1.42s.85-1.24,1.31-1.93.88-1.33,1.28-2,.76-1.19,1.06-1.68l.32.35a4.33,4.33,0,0,0-.53,1.12,1.26,1.26,0,0,0,.08.87,5.75,5.75,0,0,0,.78,1.08Z"/><path class="cls-1" d="M34.29,48.75l-.2-.33.37-.43a4.61,4.61,0,0,0,.84-4.48A5.69,5.69,0,0,0,33.49,41a2.79,2.79,0,0,0-1.57-.8,1.42,1.42,0,0,0-1.19.55,1.08,1.08,0,0,0-.3.71,2,2,0,0,0,.43,1L38,52.82a6.77,6.77,0,0,0,.69.88.61.61,0,0,0,.68.17,2.87,2.87,0,0,0,1-.77l.29.37c-.36.37-.78.82-1.24,1.35l-1.49,1.7-1.56,1.83c-.51.6-.9,1.09-1.18,1.46l-.29-.37a5.33,5.33,0,0,0,.66-1,1.21,1.21,0,0,0,0-.88,4.64,4.64,0,0,0-.64-1.16l-6.67-9.73a4.49,4.49,0,0,0-.7-.87.65.65,0,0,0-.68-.16,2.6,2.6,0,0,0-1,.74L25.62,46l.78-.85,1-1.07.87-1c.53-.61,1-1.13,1.3-1.54s.65-.79,1-1.15a11.28,11.28,0,0,1,3.55-3,2.52,2.52,0,0,1,2.84.49,3.77,3.77,0,0,1,1.34,2.66A7.38,7.38,0,0,1,37.49,44a16.24,16.24,0,0,1-2.63,4Zm.08-.54.39-.39.39-.38.39-.38a19.1,19.1,0,0,1,2.13-2,3.94,3.94,0,0,1,2-.93,2.07,2.07,0,0,1,1.83.94L43.08,47a1.84,1.84,0,0,0,.87.66.65.65,0,0,0,.66-.26,1.07,1.07,0,0,0,.25-.87,3.18,3.18,0,0,0-.43-1.17L44.26,45l.34-.4.17.26a3.83,3.83,0,0,1,.69,2.45,4.41,4.41,0,0,1-1.2,2.43,3.68,3.68,0,0,1-2.37,1.52,2.36,2.36,0,0,1-2-1l-1.7-2a3.43,3.43,0,0,0-1-.89A1.39,1.39,0,0,0,36,47.3a3.89,3.89,0,0,0-1.41,1.15Z"/><path class="cls-1" d="M49.55,28a5.76,5.76,0,0,0-1.63-1.43,2.13,2.13,0,0,0-1.45-.24,3.24,3.24,0,0,0-1.39.75l0,.05a4.8,4.8,0,0,0-.82.87,1.09,1.09,0,0,0-.15.83,6,6,0,0,0,.47,1.25l5.15,10.62c.39.78.72,1.2,1,1.25s.69-.17,1.26-.66l.23-.19a4.71,4.71,0,0,0,1.22-1.58,4.6,4.6,0,0,0,.38-2,11.74,11.74,0,0,0-.45-2.79l.39-.33c.07.21.17.44.29.72s.27.56.42.85.33.66.59,1.15.56,1,.88,1.47c-.61.49-1.28,1-2,1.66l-2,1.69L50.22,43.4,48,45.31c-.77.68-1.49,1.32-2.14,1.92l-.23-.41a5.27,5.27,0,0,0,.8-.93A1.19,1.19,0,0,0,46.6,45a4.39,4.39,0,0,0-.46-1.24L41,33.15c-.39-.77-.73-1.19-1-1.24s-.72.16-1.32.63l-.22-.42,2.2-1.84c.79-.65,1.53-1.28,2.22-1.88L44.55,27l1.79-1.55c.66-.58,1.25-1.11,1.78-1.61.2.54.37,1,.52,1.36a12.17,12.17,0,0,0,.59,1.27c.13.25.26.48.38.7s.22.41.32.57Zm-3.82,8.82-.23-.41,3.73-3.21.23.41Zm1.56-2a2.83,2.83,0,0,0,.83-1.2,4.23,4.23,0,0,0,.23-1.47,4.17,4.17,0,0,0-.25-1.43l.39-.33c.23.58.44,1.05.62,1.41s.39.77.61,1.22l.38.76c.11.22.24.45.39.71l.61,1-.38.33a3.6,3.6,0,0,0-.88-.73,2.44,2.44,0,0,0-1.19-.33,2,2,0,0,0-1.3.56Z"/><path class="cls-1" d="M70.86,10.73l2-1c.72-.36,1.41-.72,2-1.07l1.71-.92.1.46a4.33,4.33,0,0,0-1,.71,1.26,1.26,0,0,0-.36.8A5.32,5.32,0,0,0,75.52,11L78,22.55c.2.85.42,1.33.68,1.45s.74,0,1.43-.3l.13.45c-.52.23-1.1.5-1.75.83l-2,1-2.1,1.08c-.66.35-1.18.63-1.56.86l-.12-.45a5.24,5.24,0,0,0,1-.72A1.21,1.21,0,0,0,74,26a4.75,4.75,0,0,0-.15-1.32L71.2,12.1,69.5,29.76,69,30,61.12,19l2.24,10.26a4.57,4.57,0,0,0,.44,1.19,1.3,1.3,0,0,0,.85.69,2.5,2.5,0,0,0,1.59-.33l.13.46a12,12,0,0,0-1.16.52l-1.31.66L62.84,33c-.35.19-.64.36-.85.5L61.86,33A2.07,2.07,0,0,0,63,31.44a6.08,6.08,0,0,0-.11-2L60.59,18.63c-.19-.85-.42-1.33-.68-1.45s-.73,0-1.43.31L58.37,17l1.53-.72,2-1,1-.53.86-.49,6,8.73Z"/><path class="cls-1" d="M91.91,7.77a5.69,5.69,0,0,0-.92-2A2.12,2.12,0,0,0,89.75,5a3.23,3.23,0,0,0-1.57.13l-.06,0a4.15,4.15,0,0,0-1.1.48,1.06,1.06,0,0,0-.47.69,5.63,5.63,0,0,0-.07,1.34L87,19.46c0,.87.18,1.39.41,1.54s.69.12,1.41-.1l.28-.09a4.64,4.64,0,0,0,1.76-.95A4.76,4.76,0,0,0,92,18.17a11.65,11.65,0,0,0,.7-2.74l.49-.15c0,.22,0,.48,0,.78s0,.62,0,1,0,.73.09,1.29.12,1.12.21,1.7c-.75.2-1.59.44-2.51.72l-2.47.75-2.11.65c-.88.27-1.81.56-2.79.88s-1.89.61-2.73.9l0-.47a5.26,5.26,0,0,0,1.11-.53,1.26,1.26,0,0,0,.5-.73,4.74,4.74,0,0,0,.07-1.33L82,9.05c0-.87-.18-1.39-.42-1.55s-.72-.14-1.46.06l0-.47,2.75-.81c1-.28,1.91-.56,2.79-.83l2.11-.66L90,4.08c.83-.26,1.59-.52,2.27-.76,0,.57-.06,1.06-.07,1.45s0,.87,0,1.4c0,.28,0,.55.07.8s.05.47.07.65Zm-7,6.56,0-.47,4.71-1.45,0,.46Zm2.22-1.17a2.83,2.83,0,0,0,1.23-.77,4.13,4.13,0,0,0,.8-1.24,4.41,4.41,0,0,0,.35-1.42L90,9.58c0,.63,0,1.14,0,1.55s0,.85.07,1.36c0,.31,0,.59,0,.84s0,.52.07.81.08.7.14,1.21l-.48.15a3.79,3.79,0,0,0-.52-1,2.27,2.27,0,0,0-1-.78,2,2,0,0,0-1.43,0Z"/></g></g></svg>