<svg xmlns="http://www.w3.org/2000/svg" viewBox="0 0 56.69 57.06"><g id="Layer_2" data-name="Layer 2"><g id="Livello_2" data-name="Livello 2"><path d="M0,28.59C0,23.16.1,17.73,0,12.3A12,12,0,0,1,9.51.26,12.83,12.83,0,0,1,12.2,0C22.94,0,33.68,0,44.42,0A11.92,11.92,0,0,1,56.25,8.7a12.89,12.89,0,0,1,.41,3.91c0,10.74-.08,21.48,0,32.21A12.1,12.1,0,0,1,44.54,57.06q-16.23,0-32.46,0A12,12,0,0,1,0,44.88C.09,39.45,0,34,0,28.59ZM28.47,4.93H12.79c-5,0-7.85,2.71-7.86,7.72q0,16,0,32c0,4.47,2.89,7.49,7.37,7.51q16,.09,32.1,0c4.45,0,7.37-3.06,7.37-7.51q0-16,0-32.1c0-4.74-2.88-7.61-7.61-7.62Z"/><path d="M28.43,13.77A14.71,14.71,0,0,1,43.15,29a14.82,14.82,0,0,1-29.63-.69A14.73,14.73,0,0,1,28.43,13.77Zm9.81,14.72a9.9,9.9,0,0,0-19.8.08,9.9,9.9,0,1,0,19.8-.08Z"/><path d="M44.2,16.41A3.46,3.46,0,0,1,40.75,13a3.56,3.56,0,0,1,3.46-3.47,3.46,3.46,0,1,1,0,6.92Z"/></g></g></svg>