<svg xmlns="http://www.w3.org/2000/svg" viewBox="0 0 51.02 50.87"><defs><style>.cls-1{fill:#ea953b;}</style></defs><g id="Layer_2" data-name="Layer 2"><g id="Livello_2" data-name="Livello 2"><path class="cls-1" d="M28.35,21.21c3.4-4.14,7.8-4.62,12.48-4.13a12.91,12.91,0,0,1,4.25,1.07c3.59,1.71,5,4.86,5.48,8.52.79,5.44.3,10.92.42,16.39,0,2.18,0,4.38,0,6.56,0,1-.33,1.27-1.25,1.25-2.61,0-5.22,0-7.83,0-1.11,0-1.2-.56-1.2-1.43q0-7.83,0-15.66a15.26,15.26,0,0,0-.71-5c-.8-2.3-2.51-3.44-5.15-3.44-2.88,0-4.75,1.21-5.56,3.48a14.77,14.77,0,0,0-.7,5c0,5.22,0,10.44,0,15.66,0,1.05-.32,1.41-1.37,1.39-2.44-.06-4.88,0-7.32,0-.91,0-1.26-.22-1.26-1.2q0-15.78,0-31.57c0-1,.34-1.23,1.25-1.22,2.36.05,4.71.05,7.07,0,1,0,1.25.39,1.23,1.28A11.48,11.48,0,0,0,28.35,21.21Z"/><path class="cls-1" d="M0,33.86c0-5.21,0-10.43,0-15.65,0-1.08.37-1.36,1.38-1.34,3.07.05,6.15.05,9.22,0,1,0,1.34.31,1.33,1.3q0,15.72,0,31.43c0,.89-.25,1.28-1.23,1.26q-4.72-.07-9.47,0C.29,50.88,0,50.58,0,49.64c0-5.26,0-10.52,0-15.78Z"/><path class="cls-1" d="M5.93,11.83A5.92,5.92,0,1,1,6,0a5.92,5.92,0,1,1-.08,11.83Z"/></g></g></svg>