<?xml version="1.0" encoding="utf-8"?>
<!-- Generator: Adobe Illustrator 25.4.1, SVG Export Plug-In . SVG Version: 6.00 Build 0)  -->
<svg version="1.1" id="Layer_1" xmlns="http://www.w3.org/2000/svg" xmlns:xlink="http://www.w3.org/1999/xlink" x="0px" y="0px"
	 viewBox="0 0 81.7 64.5" style="enable-background:new 0 0 81.7 64.5;" xml:space="preserve">
<style type="text/css">
	.st0{fill:#010101;}
</style>
<path class="st0" d="M77,8.5L77,8.5l-0.3-0.8c-0.6-1.3-1.4-2.5-2.5-3.4c-1.5-1.4-3.5-2.2-5.5-2.2l-56.6,0c-2.1,0-4,0.8-5.5,2.2
	c-1.1,1-1.9,2.1-2.4,3.4C3.4,9.3,3,11.1,3.1,12.9v39.5c0,1.9,0.4,3.8,1.3,5.5c0.6,1.2,1.5,2.3,2.5,3.3c1.5,1.3,3.4,2,5.3,2h56.6h0
	c1.9,0,3.8-0.7,5.3-2c1.1-0.9,1.9-2,2.5-3.3c0.8-1.7,1.3-3.6,1.3-5.5V12.9C77.8,11.4,77.5,9.9,77,8.5z M12.9,56.5l19-21.2l3.7,3.5
	c1.3,1.2,3,1.9,4.8,2c1.8,0,3.5-0.7,4.8-2l3.7-3.5l19,21.2H12.9z M41.4,33.6c-0.2,0.2-0.5,0.4-0.8,0.4c-0.3,0-0.6-0.1-0.8-0.4l0,0
	L13.4,8.9l54.4,0L41.4,33.6z M12.2,7.8l0-0.1L12.2,7.8L12.2,7.8z M27.4,31L9,51.4l0-37.6L27.4,31z M71.9,51.3L53.5,30.9l18.4-17.2
	V51.3z"/>
</svg>
