<svg xmlns="http://www.w3.org/2000/svg" viewBox="0 0 75.57 60.27"><defs><style>.cls-1{fill:#ea953b;}</style></defs><g id="Layer_2" data-name="Layer 2"><g id="Livello_2" data-name="Livello 2"><path class="cls-1" d="M74.48,5.57A10,10,0,0,0,72,2.18,8.47,8.47,0,0,0,66.36,0H9.21A8.48,8.48,0,0,0,3.59,2.2,9.94,9.94,0,0,0,1.12,5.51,11.08,11.08,0,0,0,0,10.62v39A12.47,12.47,0,0,0,1.27,55a11.18,11.18,0,0,0,2.58,3.24,8.45,8.45,0,0,0,5.36,2H66.36a8.38,8.38,0,0,0,5.33-2,10,10,0,0,0,2.61-3.25,11.53,11.53,0,0,0,1.27-5.4v-39A12.89,12.89,0,0,0,74.48,5.57Zm-4.93,43L51,28.42l18.55-17ZM38.71,31.11a1.2,1.2,0,0,1-.85.37,1.28,1.28,0,0,1-.9-.41L10.42,6.69H65.3Zm-14.14-2.6L6,48.62V11.49Zm4.62,4.2,3.73,3.45a7.33,7.33,0,0,0,4.79,1.93,6.91,6.91,0,0,0,4.82-2l3.71-3.42,19.24,21H10Z"/></g></g></svg>